<?xml version="1.0" encoding="utf-8"?>
<!-- Generator: Adobe Illustrator 24.3.0, SVG Export Plug-In . SVG Version: 6.00 Build 0)  -->
<svg version="1.1" id="Layer_1" xmlns="http://www.w3.org/2000/svg" xmlns:xlink="http://www.w3.org/1999/xlink" x="0px" y="0px"
	 viewBox="0 0 1266.6 733.2" style="enable-background:new 0 0 1266.6 733.2;" xml:space="preserve">
<style type="text/css">
	.st0{fill:#FFDF32;}
	.st1{fill:#FFFFFF;}
	.st2{font-family:'SegoeUIBlack';}
	.st3{font-size:74.0599px;}
	.st4{font-family:'SegoeUI-Semibold';}
</style>
<rect width="1266.6" height="733.2"/>
<g>
	<path class="st0" d="M-398.1,327.7l-27-31.9c-6.7-7.9-15.8-13.4-25.9-15.6h0c-12.7-2.8-23.7-10.6-30.3-21.7
		c-4.9-8.1-9.5-18.2-10.9-28.8c-0.7-5.8-0.1-11.6,1.8-17.2v0c3.2-9.5,9.8-17.4,18.5-22.2l50-27.4c2-1.1,4.1-1.8,6.3-2.2l0,0
		c4.4-0.8,8.4-3,11.5-6.3c9.2-9.9,28.4-32.3,32.2-51.4c0.3-1.5,0.4-3.1,0.5-4.6c0.2-8.4,2.2-43.1,22.2-51.3c0,0,43.7-20.9,88.1,34
		c0.9,1.1,1.8,2.2,2.7,3.2c7,7.9,42.6,50.9,41.9,104.7c0,1.2,0,2.4,0,3.6c0.2,7.6-0.5,43.3-34.3,50.5c-8.9,1.9-18.1,1.2-26.7-1.6
		c-2.3-0.8-4.7-1.7-7.1-2.9c-5.2-2.6-10.7-4.4-16.4-5.3c-17-2.5-49.5-5.4-65.2,5.5c-0.7,0.5-1.4,1-2.1,1.4l-16.5,10.6l5,7.4
		c1.2,1.8,1.8,4,1.7,6.2l0,0c-0.1,2.1,0.4,4.3,1.6,6.1c3.5,5.3,11.6,16.3,21,20c7.9,3.1,13.2,11,12.5,19.5c0,0.3-0.1,0.6-0.1,0.9
		c-0.4,3.1-1.8,6.1-3.8,8.5c-3.4,4.1-10.7,11.8-20.5,15.8C-378.2,339.8-390.6,336.6-398.1,327.7z"/>
	<g>
		<path d="M-388.6,256.1c4.4,2.6,6.1,6.3,4.2,11c-1,2.4-0.3,3.9,1.1,5.7c7.7,10.2,17.3,17.7,29,22.9c7.2,3.2,9.2,8.6,6,15.9
			c-4.2,9.6-11.4,16.3-20.9,20.4c-8.1,3.5-15.7,2.2-21.9-3.8c-5.4-5.2-10.2-11-15.1-16.7c-9.6-11.2-19.1-22.6-28.8-33.8
			c-1-1.2-3.1-1.5-4.8-1.9c-4.4-1-9.2-1.1-13.3-2.9c-20.1-8.8-35-35.6-32.3-57.3c1-7.9,4.5-13.9,11.8-18
			c17.2-9.6,34.2-19.7,51.3-29.4c1.9-1.1,4.2-2.4,6.2-2.3c5.1,0.4,8.4-2.5,11.7-5.5c3.2-2.9,6.4-5.9,9.3-9.1
			c13.8-14.8,22.3-32.7,29.6-51.2c0.5-1.2,0.4-2.8,0.4-4.2c0.2-9.4,1.7-18.5,5.7-27c6.5-13.7,19.1-21,34.2-19.8
			c14.5,1.1,26.9,7.4,38.1,16.1c31.9,24.8,51.8,57.5,61.7,96.3c4.1,16.1,5.2,32.5,0.6,48.8c-4.4,15.4-15.3,25.5-29.5,27.1
			c-10.3,1.2-20-1.1-28.9-6c-6.4-3.5-13-5.1-20.1-5.6c-2-0.2-4-0.4-6-0.6c-20.4-1.9-40.4-0.4-59.5,7.6c-1.3,0.5-2.5,1.6-3.5,2.6
			c-2.7,2.5-5.1,5.5-8.1,7.6c-4.4,3.1-9.3,5.5-14.8,8.7C-392.3,253.5-390.5,255-388.6,256.1z M-236.1,202.3c0.3,5.2-0.5,6.5-5,7.1
			c-7.5,1-15.1,1.7-22.8,3.1c7.3,1.5,14.5,3,22,4.5c-0.3,0.6-0.6,1.2-1,2.1c0.5-0.2,0.8-0.2,1-0.4c4.2-3.5,7-7.9,8.3-13.2
			c3.8-15.6,2-30.9-2.4-46c-9.5-33-26.7-61.2-53.2-83.4c-8.6-7.2-18.2-12.9-29.2-15.8c-5.1-1.3-10.2-1-15,1.6
			c1.7-0.1,3.4-0.3,5.1-0.5c2.6-0.3,3.7,0.5,4,3.4c1.2,11.9-0.1,23.5-3,34.9c-0.2,0.9-0.5,1.8-0.7,2.7c0,0.2,0.1,0.4,0.1,0.7
			c4.5-5.9,7.5-18.1,10-40.4c3.9,1.7,7.7,3.1,11.1,5c0.7,0.4,0.6,3,0.3,4.5c-2.7,16.8-8.2,32.5-16.7,47.2c-2,3.5-4.2,6.9-5.9,10.7
			c14.4-10.8,23.9-25.1,30-41.9c0.4,0.1,0.8,0.3,1.2,0.4c-3.1,11.4-6.3,22.8-9.4,34.2c11.2-3.6,16.9,4.5,22.5,12.2
			c4.1,5.5,6.5,11.9,6.9,19c0.3,4.7-1.1,8.3-4.8,11.4c-6.8,5.7-13.4,11.8-20.8,18.4c7.7,2.8,14.6,5.3,22,8
			c-4.1-0.2-7.8-0.4-11.6-0.6c11.1,3.6,22.5,5.2,34.2,4.8c0,0.3,0.1,0.6,0.1,0.9c-7.2,1-14.5,2-21.7,3
			C-266,204.8-251.1,205.8-236.1,202.3z M-376.9,150.3c-5.7,6-11.8,11.6-18.1,17c4.7-5.5,9.6-10.8,14-16.5
			c5.6-7.4,10.9-15,15.9-22.8c3.8-5.9,3.6-6.4,1.1-14.3c-1.3,2.7-2.4,4.9-3.5,7.2c-9.2,19-21.1,35.8-38.1,48.6
			c-2.3,1.8-4.7,3.7-7.3,4.9c-4.9,2.3-6.8,6.3-7.2,11.3c-1,13.6,4.2,25,12.5,35.2c0.5,0.6,2.5,0.4,3.5-0.1
			c16.5-7.8,33-15.9,49.6-23.7c5.2-2.5,10.7-4.3,15.9-6.7c2.3-1.1,3.4-0.5,4.9,1.5c7,9.4,14.9,17.8,24.9,24.2
			c1.3,0.9,2.7,1.6,4.3,2.1c-24.5-21.2-41.4-47.5-52.5-77.8c-7.1,6.4-14.1,12.6-21,18.8c-0.1-0.1-0.1-0.2-0.2-0.3
			c5.9-6.7,11.7-13.4,17.6-20c2.3-2.5,2.3-4.9,0.6-7.5C-365.7,137.7-371.1,144.2-376.9,150.3z M-439.4,234.1
			c0.1,0.2,0.2,0.4,0.4,0.6c-9.6,5.8-19.1,11.6-29,17.6c0.8,1,1.4,1.9,2.1,2.9c15.4-8.9,30.5-17.6,45.7-26.4
			c7.3,7.3,15.2,13,25.8,14.4c-25.7-13.5-37.6-34.3-35.6-63c-6.2,1.9-44.5,25.1-46.5,28.6c9.4-4.9,18.3-9.4,27.1-14
			c0.1,0.2,0.2,0.4,0.3,0.5c-1.2,0.8-2.4,1.5-3.6,2.3c-7.9,4.8-15.9,9.5-23.8,14.5c-1.3,0.8-2.1,2.5-3.2,3.7c0.3,0.3,0.6,0.7,1,1
			c5.3-2.7,10.7-5.5,16-8.2c0.1,0.2,0.3,0.5,0.4,0.7c-4.7,2.9-9.3,5.9-14.1,8.5c-2.7,1.5-3.4,3.3-3.1,6.2c1,9.3,4.2,17.7,9.5,25.8
			C-459.5,244.5-449.5,239.3-439.4,234.1z M-409.9,261.6c1.9,3.4,3.8,6.7,5.7,10c-0.2,0.1-0.4,0.3-0.5,0.4c-2.6-2.9-5.1-5.8-7.8-8.9
			c-1.7,1-3.3,1.9-5.2,2.9c2.8,4.6,5.5,9.1,8.2,13.5c-0.2,0.1-0.3,0.2-0.5,0.4c-3.5-4-7.1-7.9-10.8-12.1c-1.6,0.9-3.1,1.8-4.9,2.9
			c3.5,5.5,6.8,10.7,10.2,16c-0.2,0.1-0.3,0.3-0.5,0.4c-3.8-4.2-7.5-8.4-11.4-12.5c-0.8-0.8-2.1-1-3.2-1.5c-0.2,0.3-0.4,0.7-0.6,1
			c3.4,3.7,6.9,7.3,10,11.2c8.6,10.4,16.9,21.1,25.6,31.4c3,3.6,6.5,6.8,10.2,9.7c3.6,2.8,8,3.5,12.4,1.9
			c6.5-2.4,12.5-5.5,15.6-12.2c2.1-4.5,1-7.4-3.5-9.4c-12.3-5.6-23.1-13.1-31.2-24c-4.2-5.7-7.8-11.7-11.7-17.6
			c-1-1.6-1.9-3.2-3-5.2C-408,260.5-408.8,261-409.9,261.6z M-308.9,128.9c-9.8,3.9-19.4,7.8-29.5,11.9c2.3,5.2,4.5,10.2,6.8,15.3
			c2.5-1.2,4.5-2.1,6.6-3.1c0.1,0.2,0.2,0.4,0.3,0.5c-1.8,1.3-3.7,2.5-5.9,4c0.8,1.5,1.5,2.9,2.5,4.6c3.8-1.9,7.5-3.8,11.2-5.6
			c0.1,0.2,0.2,0.4,0.3,0.6c-3.4,2.2-6.7,4.4-10.4,6.9c0.8,1.4,1.5,2.6,2.4,4.1c5.7-2.9,11.1-5.6,16.5-8.4c0.1,0.2,0.2,0.3,0.3,0.5
			c-5,3.3-10.1,6.7-15.3,10.2c1,1.5,1.8,2.7,2.9,4.4c3.5-2.2,6.8-4.3,10.1-6.4c1.6-1,3.2-1.9,4.7-3c4.3-3.2,8.5-6.3,13.7-1.6
			c0.9,0.8,2.6,0.8,4,1.2C-301.2,156.8-307.9,144.8-308.9,128.9z M-296.5,207.8c-20.4-16.9-34.7-38.3-44.9-62.6
			c-7.3-17.3-11.7-35.2-10.4-54.1c0.5-8.4,2.1-16.5,6.2-24.2c-0.9,1.3-2,2.5-2.8,3.8c-6,10.3-7.3,21.7-6,33.1
			c5.3,46.1,26.7,83.3,63.5,111.4c8.4,6.4,17.8,10.9,28.5,12.1c3.1,0.3,6.2,0.1,9.3,0.1C-270.2,226.2-284,218.2-296.5,207.8z
			 M-298.2,128.2c-4.1-2.7-6-1.6-5.7,3.2c0.8,11.4,6.1,20.5,15.5,27.1c1.2,0.8,3.6,1.7,4.4,1.1c1.1-0.8,1.3-3,1.7-4.1
			C-283.9,143.7-288.6,134.4-298.2,128.2z M-282.4,71.3c30.7,29.2,50.5,64.4,58.1,106.2C-230.6,135.1-250.5,99.9-282.4,71.3z
			 M-389.3,266.9c1.7-3.4,1-4.8-2.2-6.9c-2.2-1.5-4.2-3.4-6.4-4.9c-0.6-0.4-2-0.3-2.7,0c-0.4,0.2-0.7,1.7-0.4,2.3
			c2.4,4.8,5,9.5,8.1,15.1C-391.3,270-390.1,268.5-389.3,266.9z"/>
		<path class="st1" d="M-234.3,53.6c-5.8,5.7-11.5,11.3-17.1,16.8c0.3,0.3,0.6,0.7,0.8,1c9.4-6.5,18.8-12.9,28.9-19.9
			c-3.7-1.3-6.8-2.5-10.4-3.8c5.3-5.5,10.3-10.8,15.4-16c-0.2-0.2-0.3-0.4-0.5-0.6c-8.2,6.2-16.5,12.4-25.2,19
			C-239.4,51.5-236.9,52.6-234.3,53.6z"/>
		<path class="st1" d="M-210.5,143.4c11.3,0.8,22.6,1.6,34.8,2.5c-2.2-3.4-4-6.2-6-9.5c8-1,15.4-2,22.9-3c0-0.3,0-0.7-0.1-1
			c-10.6,0-21.1,0-32,0c1.3,2.4,2.6,4.8,4.2,7.6c-8.2,0.9-16,1.8-23.7,2.7C-210.4,143-210.4,143.2-210.5,143.4z"/>
		<path class="st1" d="M-187.1,189.9c-8.1-1.9-15.6-3.6-23.1-5.3c-0.1,0.2-0.2,0.5-0.2,0.7c10.4,4.5,20.7,9,31.8,13.8
			c-0.9-3.8-1.6-7-2.5-10.9c8,1.7,15.5,3.2,22.9,4.8c0.1-0.2,0.1-0.3,0.2-0.5c-10-3.8-20-7.7-30.6-11.7
			C-188,183.9-187.6,186.6-187.1,189.9z"/>
		<path class="st1" d="M-285.8,49.1c6.7-9.2,13.4-18.3,20.5-28c-3.8,0-7.1,0-11.1,0c3.4-7.4,6.5-14.3,9.7-21.1
			c-0.2-0.1-0.4-0.2-0.6-0.3c-5.8,8.8-11.7,17.6-18,27.1c3.4,0,6.1,0,9.5,0c-3.7,7.8-7.1,14.9-10.5,22
			C-286.2,48.9-286,49-285.8,49.1z"/>
		<path class="st1" d="M-210,86.7c2.5,2.3,4.6,4.1,7,6.2c-7.3,3.5-14.2,6.9-21.1,10.2c0.1,0.2,0.2,0.5,0.3,0.7
			c10.8-2.9,21.6-5.9,33.1-9c-3.1-2.5-5.7-4.6-8.7-7c7.1-3.6,13.7-6.9,20.3-10.2c-0.1-0.2-0.2-0.4-0.2-0.6
			C-189.3,80.1-199.4,83.3-210,86.7z"/>
		<path class="st0" d="M-280.5,199.9c14.5,4.9,29.3,5.9,44.4,2.4c0.3,5.2-0.5,6.5-5,7.1c-7.5,1-15.1,1.7-22.8,3.1
			c7.3,1.5,14.5,3,22,4.5c-0.3,0.6-0.6,1.2-1,2.1c0.5-0.2,0.8-0.2,1-0.4c4.2-3.5,7-7.9,8.3-13.2c3.8-15.6,2-30.9-2.4-46
			c-9.5-33-26.7-61.2-53.2-83.4c-8.6-7.2-18.2-12.9-29.2-15.8c-5.1-1.3-10.2-1-15,1.6c1.7-0.1,3.4-0.3,5.1-0.5
			c2.6-0.3,3.7,0.5,4,3.4c1.2,11.9-0.1,23.5-3,34.9c-0.2,0.9-0.5,1.8-0.7,2.7c0,0.2,0.1,0.4,0.1,0.7c4.5-5.9,7.5-18.1,10-40.4
			c3.9,1.7,7.7,3.1,11.1,5c0.7,0.4,0.6,3,0.3,4.5c-2.7,16.8-8.2,32.5-16.7,47.2c-2,3.5-4.2,6.9-5.9,10.7
			c14.4-10.8,23.9-25.1,30-41.9c0.4,0.1,0.8,0.3,1.2,0.4c-3.1,11.4-6.3,22.8-9.4,34.2c11.2-3.6,16.9,4.5,22.5,12.2
			c4.1,5.5,6.5,11.9,6.9,19c0.3,4.7-1.1,8.3-4.8,11.4c-6.8,5.7-13.4,11.8-20.8,18.4c7.7,2.8,14.6,5.3,22,8
			c-4.1-0.2-7.8-0.4-11.6-0.6c11.1,3.6,22.5,5.2,34.2,4.8c0,0.3,0.1,0.6,0.1,0.9C-266,197.9-273.2,198.9-280.5,199.9z"/>
		<path class="st0" d="M-360.7,138.9c-6,6.6-11.8,13.3-17.6,20c0.1,0.1,0.1,0.2,0.2,0.3c7-6.2,13.9-12.5,21-18.8
			c11.2,30.4,28.1,56.6,52.5,77.8c-1.6-0.6-3-1.3-4.3-2.1c-9.9-6.3-17.9-14.8-24.9-24.2c-1.4-1.9-2.6-2.5-4.9-1.5
			c-5.2,2.4-10.7,4.2-15.9,6.7c-16.6,7.8-33,15.8-49.6,23.7c-1,0.5-3.1,0.6-3.5,0.1c-8.4-10.2-13.6-21.7-12.5-35.2
			c0.4-4.9,2.3-9,7.2-11.3c2.6-1.2,4.9-3.2,7.3-4.9c17.1-12.8,29-29.6,38.1-48.6c1.1-2.3,2.2-4.5,3.5-7.2c2.5,8,2.8,8.4-1.1,14.3
			c-5,7.8-10.4,15.4-15.9,22.8c-4.3,5.7-9.3,11-14,16.5c6.4-5.3,12.4-11,18.1-17c5.8-6.1,11.2-12.5,16.9-18.9
			C-358.4,134.1-358.5,136.4-360.7,138.9z M-340.2,183c-1-1.5-1.8-2.9-3.2-5c-20.7,12.1-41.3,24.1-61.9,36c0.2,0.3,0.4,0.7,0.7,1
			C-383.2,204.5-361.9,193.8-340.2,183z"/>
		<path class="st0" d="M-470,249.9c10.5-5.4,20.5-10.6,30.6-15.8c0.1,0.2,0.2,0.4,0.4,0.6c-9.6,5.8-19.1,11.6-29,17.6
			c0.8,1,1.4,1.9,2.1,2.9c15.4-8.9,30.5-17.6,45.7-26.4c7.3,7.3,15.2,13,25.8,14.4c-25.7-13.5-37.6-34.3-35.6-63
			c-6.2,1.9-44.5,25.1-46.5,28.6c9.4-4.9,18.3-9.4,27.1-14c0.1,0.2,0.2,0.4,0.3,0.5c-1.2,0.8-2.4,1.5-3.6,2.3
			c-7.9,4.8-15.9,9.5-23.8,14.5c-1.3,0.8-2.1,2.5-3.2,3.7c0.3,0.3,0.6,0.7,1,1c5.3-2.7,10.7-5.5,16-8.2c0.1,0.2,0.3,0.5,0.4,0.7
			c-4.7,2.9-9.3,5.9-14.1,8.5c-2.7,1.5-3.4,3.3-3.1,6.2C-478.4,233.3-475.3,241.8-470,249.9z"/>
		<path class="st0" d="M-406.8,259.8c-1.2,0.7-2,1.1-3,1.8c1.9,3.4,3.8,6.7,5.7,10c-0.2,0.1-0.4,0.3-0.5,0.4
			c-2.6-2.9-5.1-5.8-7.8-8.9c-1.7,1-3.3,1.9-5.2,2.9c2.8,4.6,5.5,9.1,8.2,13.5c-0.2,0.1-0.3,0.2-0.5,0.4c-3.5-4-7.1-7.9-10.8-12.1
			c-1.6,0.9-3.1,1.8-4.9,2.9c3.5,5.5,6.8,10.7,10.2,16c-0.2,0.1-0.3,0.3-0.5,0.4c-3.8-4.2-7.5-8.4-11.4-12.5c-0.8-0.8-2.1-1-3.2-1.5
			c-0.2,0.3-0.4,0.7-0.6,1c3.4,3.7,6.9,7.3,10,11.2c8.6,10.4,16.9,21.1,25.6,31.4c3,3.6,6.5,6.8,10.2,9.7c3.6,2.8,8,3.5,12.4,1.9
			c6.5-2.4,12.5-5.5,15.6-12.2c2.1-4.5,1-7.4-3.5-9.4c-12.3-5.6-23.1-13.1-31.2-24c-4.2-5.7-7.8-11.7-11.7-17.6
			C-404.8,263.5-405.7,261.8-406.8,259.8z"/>
		<path class="st0" d="M-287.6,164.9c-13.6-8.1-20.3-20.1-21.3-36.1c-9.8,3.9-19.4,7.8-29.5,11.9c2.3,5.2,4.5,10.2,6.8,15.3
			c2.5-1.2,4.5-2.1,6.6-3.1c0.1,0.2,0.2,0.4,0.3,0.5c-1.8,1.3-3.7,2.5-5.9,4c0.8,1.5,1.5,2.9,2.5,4.6c3.8-1.9,7.5-3.8,11.2-5.6
			c0.1,0.2,0.2,0.4,0.3,0.6c-3.4,2.2-6.7,4.4-10.4,6.9c0.8,1.4,1.5,2.6,2.4,4.1c5.7-2.9,11.1-5.6,16.5-8.4c0.1,0.2,0.2,0.3,0.3,0.5
			c-5,3.3-10.1,6.7-15.3,10.2c1,1.5,1.8,2.7,2.9,4.4c3.5-2.2,6.8-4.3,10.1-6.4c1.6-1,3.2-1.9,4.7-3c4.3-3.2,8.5-6.3,13.7-1.6
			C-290.7,164.6-289,164.6-287.6,164.9z"/>
		<path class="st0" d="M-253.1,227.4c-17.1-1.2-30.9-9.2-43.5-19.6c-20.4-16.9-34.7-38.3-44.9-62.6c-7.3-17.3-11.7-35.2-10.4-54.1
			c0.5-8.4,2.1-16.5,6.2-24.2c-0.9,1.3-2,2.5-2.8,3.8c-6,10.3-7.3,21.7-6,33.1c5.3,46.1,26.7,83.3,63.5,111.4
			c8.4,6.4,17.8,10.9,28.5,12.1C-259.3,227.7-256.2,227.4-253.1,227.4z"/>
		<path class="st0" d="M-283.9,159.5c-0.8,0.6-3.2-0.3-4.4-1.1c-9.4-6.5-14.7-15.6-15.5-27.1c-0.3-4.8,1.6-5.9,5.7-3.2
			c9.6,6.3,14.3,15.5,16,27.2C-282.6,156.5-282.8,158.7-283.9,159.5z M-289.8,153.6c0.8,0.6,2.2,0.9,3.1,0.6
			c0.5-0.2,0.9-1.9,0.7-2.8c-1.4-7.4-4.9-13.6-10.7-18.4c-0.7-0.6-2.2-1.1-2.8-0.8c-0.8,0.5-1,1.9-1.3,2.6
			C-298.9,142.5-295.7,148.9-289.8,153.6z"/>
		<path class="st0" d="M-224.3,177.6c-6.3-42.5-26.2-77.7-58.1-106.2C-251.7,100.6-231.9,135.7-224.3,177.6z"/>
		<path class="st0" d="M-392.9,272.5c1.6-2.5,2.8-4,3.6-5.6c1.7-3.4,1-4.8-2.2-6.9c-2.2-1.5-4.2-3.4-6.4-4.9c-0.6-0.4-2-0.3-2.7,0
			c-0.4,0.2-0.7,1.7-0.4,2.3C-398.5,262.1-396,266.8-392.9,272.5z"/>
		<path d="M-404.6,215.1c21.4-10.6,42.7-21.3,64.5-32.1c-1-1.5-1.8-2.9-3.2-5c-20.7,12.1-41.3,24.1-61.9,36
			C-405.1,214.4-404.8,214.8-404.6,215.1z"/>
		<path d="M-300.7,134.9c1.8,7.7,5.1,14,11,18.8c0.8,0.6,2.2,0.9,3.1,0.6c0.5-0.2,0.9-1.9,0.7-2.8c-1.4-7.4-4.9-13.6-10.7-18.4
			c-0.7-0.6-2.2-1.1-2.8-0.8C-300.2,132.7-300.4,134.1-300.7,134.9z"/>
	</g>
</g>
<g>
	<path class="st0" d="M1615.2,334.4l-27-31.9c-6.7-7.9-15.8-13.4-25.9-15.6l0,0c-12.7-2.8-23.7-10.6-30.3-21.7
		c-4.9-8.1-9.5-18.2-10.9-28.8c-0.7-5.8-0.1-11.6,1.8-17.2v0c3.2-9.5,9.8-17.4,18.5-22.2l50-27.4c2-1.1,4.1-1.8,6.3-2.2l0,0
		c4.4-0.8,8.4-3,11.5-6.3c9.2-9.9,28.4-32.3,32.2-51.4c0.3-1.5,0.4-3.1,0.5-4.6c0.2-8.4,2.2-43.1,22.2-51.3c0,0,43.7-20.9,88.1,34
		c0.9,1.1,1.8,2.2,2.7,3.2c7,7.9,42.6,50.9,41.9,104.7c0,1.2,0,2.4,0,3.6c0.2,7.6-0.5,43.3-34.3,50.5c-8.9,1.9-18.1,1.2-26.7-1.6
		c-2.3-0.8-4.7-1.7-7.1-2.9c-5.2-2.6-10.7-4.4-16.4-5.3c-17-2.5-49.5-5.4-65.2,5.5c-0.7,0.5-1.4,1-2.1,1.4l-16.5,10.6l5,7.4
		c1.2,1.8,1.8,4,1.7,6.2v0c-0.1,2.1,0.4,4.3,1.6,6.1c3.5,5.3,11.6,16.3,21,20c7.9,3.1,13.2,11,12.5,19.5c0,0.3-0.1,0.6-0.1,0.9
		c-0.4,3.1-1.8,6.1-3.8,8.5c-3.4,4.1-10.7,11.8-20.5,15.8C1635.1,346.5,1622.8,343.2,1615.2,334.4z"/>
	<g>
		<path d="M1624.8,262.7c4.4,2.6,6.1,6.3,4.2,11c-1,2.4-0.3,3.9,1.1,5.7c7.7,10.2,17.3,17.7,29,22.9c7.2,3.2,9.2,8.6,6,15.9
			c-4.2,9.6-11.4,16.3-20.9,20.4c-8.1,3.5-15.7,2.2-21.9-3.8c-5.4-5.2-10.2-11-15.1-16.7c-9.6-11.2-19.1-22.6-28.8-33.8
			c-1-1.2-3.1-1.5-4.8-1.9c-4.4-1-9.2-1.1-13.3-2.9c-20.1-8.8-35-35.6-32.3-57.3c1-7.9,4.5-13.9,11.8-18
			c17.2-9.6,34.2-19.7,51.3-29.4c1.9-1.1,4.2-2.4,6.2-2.3c5.1,0.4,8.4-2.5,11.7-5.5c3.2-2.9,6.4-5.9,9.3-9.1
			c13.8-14.8,22.3-32.7,29.6-51.2c0.5-1.2,0.4-2.8,0.4-4.2c0.2-9.4,1.7-18.5,5.7-27c6.5-13.7,19.1-21,34.2-19.8
			c14.5,1.1,26.9,7.4,38.1,16.1c31.9,24.8,51.8,57.5,61.7,96.3c4.1,16.1,5.2,32.5,0.6,48.8c-4.4,15.4-15.3,25.5-29.5,27.1
			c-10.3,1.2-20-1.1-28.9-6c-6.4-3.5-13-5.1-20.1-5.6c-2-0.2-4-0.4-6-0.6c-20.4-1.9-40.4-0.4-59.5,7.6c-1.3,0.5-2.5,1.6-3.5,2.6
			c-2.7,2.5-5.1,5.5-8.1,7.6c-4.4,3.1-9.3,5.5-14.8,8.7C1621,260.1,1622.8,261.6,1624.8,262.7z M1777.3,208.9c0.3,5.2-0.5,6.5-5,7.1
			c-7.5,1-15.1,1.7-22.8,3.1c7.3,1.5,14.5,3,22,4.5c-0.3,0.6-0.6,1.2-1,2.1c0.5-0.2,0.8-0.2,1-0.4c4.2-3.5,7-7.9,8.3-13.2
			c3.8-15.6,2-30.9-2.4-46c-9.5-33-26.7-61.2-53.2-83.4c-8.6-7.2-18.2-12.9-29.2-15.8c-5.1-1.3-10.2-1-15,1.6
			c1.7-0.1,3.4-0.3,5.1-0.5c2.6-0.3,3.7,0.5,4,3.4c1.2,11.9-0.1,23.5-3,34.9c-0.2,0.9-0.5,1.8-0.7,2.7c0,0.2,0.1,0.4,0.1,0.7
			c4.5-5.9,7.5-18.1,10-40.4c3.9,1.7,7.7,3.1,11.1,5c0.7,0.4,0.6,3,0.3,4.5c-2.7,16.8-8.2,32.5-16.7,47.2c-2,3.5-4.2,6.9-5.9,10.7
			c14.4-10.8,23.9-25.1,30-41.9c0.4,0.1,0.8,0.3,1.2,0.4c-3.1,11.4-6.3,22.8-9.4,34.2c11.2-3.6,16.9,4.5,22.5,12.2
			c4.1,5.5,6.5,11.9,6.9,19c0.3,4.7-1.1,8.3-4.8,11.4c-6.8,5.7-13.4,11.8-20.8,18.4c7.7,2.8,14.6,5.3,22,8
			c-4.1-0.2-7.8-0.4-11.6-0.6c11.1,3.6,22.5,5.2,34.2,4.8c0,0.3,0.1,0.6,0.1,0.9c-7.2,1-14.5,2-21.7,3
			C1747.4,211.5,1762.2,212.5,1777.3,208.9z M1636.4,156.9c-5.7,6-11.8,11.6-18.1,17c4.7-5.5,9.6-10.8,14-16.5
			c5.6-7.4,10.9-15,15.9-22.8c3.8-5.9,3.6-6.4,1.1-14.3c-1.3,2.7-2.4,4.9-3.5,7.2c-9.2,19-21.1,35.8-38.1,48.6
			c-2.3,1.8-4.7,3.7-7.3,4.9c-4.9,2.3-6.8,6.3-7.2,11.3c-1,13.6,4.2,25,12.5,35.2c0.5,0.6,2.5,0.4,3.5-0.1
			c16.5-7.8,33-15.9,49.6-23.7c5.2-2.5,10.7-4.3,15.9-6.7c2.3-1.1,3.4-0.5,4.9,1.5c7,9.4,14.9,17.8,24.9,24.2
			c1.3,0.9,2.7,1.6,4.3,2.1c-24.5-21.2-41.4-47.5-52.5-77.8c-7.1,6.4-14.1,12.6-21,18.8c-0.1-0.1-0.1-0.2-0.2-0.3
			c5.9-6.7,11.7-13.4,17.6-20c2.3-2.5,2.3-4.9,0.6-7.5C1647.6,144.4,1642.2,150.8,1636.4,156.9z M1573.9,240.7
			c0.1,0.2,0.2,0.4,0.4,0.6c-9.6,5.8-19.1,11.6-29,17.6c0.8,1,1.4,1.9,2.1,2.9c15.4-8.9,30.5-17.6,45.7-26.4
			c7.3,7.3,15.2,13,25.8,14.4c-25.7-13.5-37.6-34.3-35.6-63c-6.2,1.9-44.5,25.1-46.5,28.6c9.4-4.9,18.3-9.4,27.1-14
			c0.1,0.2,0.2,0.4,0.3,0.5c-1.2,0.8-2.4,1.5-3.6,2.3c-7.9,4.8-15.9,9.5-23.8,14.5c-1.3,0.8-2.1,2.5-3.2,3.7c0.3,0.3,0.6,0.7,1,1
			c5.3-2.7,10.7-5.5,16-8.2c0.1,0.2,0.3,0.5,0.4,0.7c-4.7,2.9-9.3,5.9-14.1,8.5c-2.7,1.5-3.4,3.3-3.1,6.2c1,9.3,4.2,17.7,9.5,25.8
			C1553.8,251.1,1563.9,245.9,1573.9,240.7z M1603.5,268.2c1.9,3.4,3.8,6.7,5.7,10c-0.2,0.1-0.4,0.3-0.5,0.4
			c-2.6-2.9-5.1-5.8-7.8-8.9c-1.7,1-3.3,1.9-5.2,2.9c2.8,4.6,5.5,9.1,8.2,13.5c-0.2,0.1-0.3,0.2-0.5,0.4c-3.5-4-7.1-7.9-10.8-12.1
			c-1.6,0.9-3.1,1.8-4.9,2.9c3.5,5.5,6.8,10.7,10.2,16c-0.2,0.1-0.3,0.3-0.5,0.4c-3.8-4.2-7.5-8.4-11.4-12.5c-0.8-0.8-2.1-1-3.2-1.5
			c-0.2,0.3-0.4,0.7-0.6,1c3.4,3.7,6.9,7.3,10,11.2c8.6,10.4,16.9,21.1,25.6,31.4c3,3.6,6.5,6.8,10.2,9.7c3.6,2.8,8,3.5,12.4,1.9
			c6.5-2.4,12.5-5.5,15.6-12.2c2.1-4.5,1-7.4-3.5-9.4c-12.3-5.6-23.1-13.1-31.2-24c-4.2-5.7-7.8-11.7-11.7-17.6
			c-1-1.6-1.9-3.2-3-5.2C1605.4,267.1,1604.6,267.6,1603.5,268.2z M1704.4,135.5c-9.8,3.9-19.4,7.8-29.5,11.9
			c2.3,5.2,4.5,10.2,6.8,15.3c2.5-1.2,4.5-2.1,6.6-3.1c0.1,0.2,0.2,0.4,0.3,0.5c-1.8,1.3-3.7,2.5-5.9,4c0.8,1.5,1.5,2.9,2.5,4.6
			c3.8-1.9,7.5-3.8,11.2-5.6c0.1,0.2,0.2,0.4,0.3,0.6c-3.4,2.2-6.7,4.4-10.4,6.9c0.8,1.4,1.5,2.6,2.4,4.1c5.7-2.9,11.1-5.6,16.5-8.4
			c0.1,0.2,0.2,0.3,0.3,0.5c-5,3.3-10.1,6.7-15.3,10.2c1,1.5,1.8,2.7,2.9,4.4c3.5-2.2,6.8-4.3,10.1-6.4c1.6-1,3.2-1.9,4.7-3
			c4.3-3.2,8.5-6.3,13.7-1.6c0.9,0.8,2.6,0.8,4,1.2C1712.1,163.4,1705.4,151.4,1704.4,135.5z M1716.8,214.4
			c-20.4-16.9-34.7-38.3-44.9-62.6c-7.3-17.3-11.7-35.2-10.4-54.1c0.5-8.4,2.1-16.5,6.2-24.2c-0.9,1.3-2,2.5-2.8,3.8
			c-6,10.3-7.3,21.7-6,33.1c5.3,46.1,26.7,83.3,63.5,111.4c8.4,6.4,17.8,10.9,28.5,12.1c3.1,0.3,6.2,0.1,9.3,0.1
			C1743.2,232.8,1729.4,224.8,1716.8,214.4z M1715.2,134.8c-4.1-2.7-6-1.6-5.7,3.2c0.8,11.4,6.1,20.5,15.5,27.1
			c1.2,0.8,3.6,1.7,4.4,1.1c1.1-0.8,1.3-3,1.7-4.1C1729.4,150.3,1724.7,141.1,1715.2,134.8z M1730.9,78
			c30.7,29.2,50.5,64.4,58.1,106.2C1782.8,141.7,1762.9,106.5,1730.9,78z M1624,273.5c1.7-3.4,1-4.8-2.2-6.9
			c-2.2-1.5-4.2-3.4-6.4-4.9c-0.6-0.4-2-0.3-2.7,0c-0.4,0.2-0.7,1.7-0.4,2.3c2.4,4.8,5,9.5,8.1,15.1
			C1622.1,276.6,1623.2,275.1,1624,273.5z"/>
		<path class="st1" d="M1779,60.3c-5.8,5.7-11.5,11.3-17.1,16.8c0.3,0.3,0.6,0.7,0.8,1c9.4-6.5,18.8-12.9,28.9-19.9
			c-3.7-1.3-6.8-2.5-10.4-3.8c5.3-5.5,10.3-10.8,15.4-16c-0.2-0.2-0.3-0.4-0.5-0.6c-8.2,6.2-16.5,12.4-25.2,19
			C1773.9,58.1,1776.4,59.2,1779,60.3z"/>
		<path class="st1" d="M1802.9,150.1c11.3,0.8,22.6,1.6,34.8,2.5c-2.2-3.4-4-6.2-6-9.5c8-1,15.4-2,22.9-3c0-0.3,0-0.7-0.1-1
			c-10.6,0-21.1,0-32,0c1.3,2.4,2.6,4.8,4.2,7.6c-8.2,0.9-16,1.8-23.7,2.7C1802.9,149.6,1802.9,149.8,1802.9,150.1z"/>
		<path class="st1" d="M1826.3,196.6c-8.1-1.9-15.6-3.6-23.1-5.3c-0.1,0.2-0.2,0.5-0.2,0.7c10.4,4.5,20.7,9,31.8,13.8
			c-0.9-3.8-1.6-7-2.5-10.9c8,1.7,15.5,3.2,22.9,4.8c0.1-0.2,0.1-0.3,0.2-0.5c-10-3.8-20-7.7-30.6-11.7
			C1825.3,190.5,1825.8,193.2,1826.3,196.6z"/>
		<path class="st1" d="M1727.5,55.7c6.7-9.2,13.4-18.3,20.5-28c-3.8,0-7.1,0-11.1,0c3.4-7.4,6.5-14.3,9.7-21.1
			c-0.2-0.1-0.4-0.2-0.6-0.3c-5.8,8.8-11.7,17.6-18,27.1c3.4,0,6.1,0,9.5,0c-3.7,7.8-7.1,14.9-10.5,22
			C1727.1,55.5,1727.3,55.6,1727.5,55.7z"/>
		<path class="st1" d="M1803.4,93.3c2.5,2.3,4.6,4.1,7,6.2c-7.3,3.5-14.2,6.9-21.1,10.2c0.1,0.2,0.2,0.5,0.3,0.7
			c10.8-2.9,21.6-5.9,33.1-9c-3.1-2.5-5.7-4.6-8.7-7c7.1-3.6,13.7-6.9,20.3-10.2c-0.1-0.2-0.2-0.4-0.2-0.6
			C1824,86.8,1814,90,1803.4,93.3z"/>
		<path class="st0" d="M1732.9,206.5c14.5,4.9,29.3,5.9,44.4,2.4c0.3,5.2-0.5,6.5-5,7.1c-7.5,1-15.1,1.7-22.8,3.1
			c7.3,1.5,14.5,3,22,4.5c-0.3,0.6-0.6,1.2-1,2.1c0.5-0.2,0.8-0.2,1-0.4c4.2-3.5,7-7.9,8.3-13.2c3.8-15.6,2-30.9-2.4-46
			c-9.5-33-26.7-61.2-53.2-83.4c-8.6-7.2-18.2-12.9-29.2-15.8c-5.1-1.3-10.2-1-15,1.6c1.7-0.1,3.4-0.3,5.1-0.5
			c2.6-0.3,3.7,0.5,4,3.4c1.2,11.9-0.1,23.5-3,34.9c-0.2,0.9-0.5,1.8-0.7,2.7c0,0.2,0.1,0.4,0.1,0.7c4.5-5.9,7.5-18.1,10-40.4
			c3.9,1.7,7.7,3.1,11.1,5c0.7,0.4,0.6,3,0.3,4.5c-2.7,16.8-8.2,32.5-16.7,47.2c-2,3.5-4.2,6.9-5.9,10.7
			c14.4-10.8,23.9-25.1,30-41.9c0.4,0.1,0.8,0.3,1.2,0.4c-3.1,11.4-6.3,22.8-9.4,34.2c11.2-3.6,16.9,4.5,22.5,12.2
			c4.1,5.5,6.5,11.9,6.9,19c0.3,4.7-1.1,8.3-4.8,11.4c-6.8,5.7-13.4,11.8-20.8,18.4c7.7,2.8,14.6,5.3,22,8
			c-4.1-0.2-7.8-0.4-11.6-0.6c11.1,3.6,22.5,5.2,34.2,4.8c0,0.3,0.1,0.6,0.1,0.9C1747.3,204.5,1740.1,205.5,1732.9,206.5z"/>
		<path class="st0" d="M1652.6,145.5c-6,6.6-11.8,13.3-17.6,20c0.1,0.1,0.1,0.2,0.2,0.3c7-6.2,13.9-12.5,21-18.8
			c11.2,30.4,28.1,56.6,52.5,77.8c-1.6-0.6-3-1.3-4.3-2.1c-9.9-6.3-17.9-14.8-24.9-24.2c-1.4-1.9-2.6-2.5-4.9-1.5
			c-5.2,2.4-10.7,4.2-15.9,6.7c-16.6,7.8-33,15.8-49.6,23.7c-1,0.5-3.1,0.6-3.5,0.1c-8.4-10.2-13.6-21.7-12.5-35.2
			c0.4-4.9,2.3-9,7.2-11.3c2.6-1.2,4.9-3.2,7.3-4.9c17.1-12.8,29-29.6,38.1-48.6c1.1-2.3,2.2-4.5,3.5-7.2c2.5,8,2.8,8.4-1.1,14.3
			c-5,7.8-10.4,15.4-15.9,22.8c-4.3,5.7-9.3,11-14,16.5c6.4-5.3,12.4-11,18.1-17c5.8-6.1,11.2-12.5,16.9-18.9
			C1655,140.7,1654.9,143,1652.6,145.5z M1673.2,189.6c-1-1.5-1.8-2.9-3.2-5c-20.7,12.1-41.3,24.1-61.9,36c0.2,0.3,0.4,0.7,0.7,1
			C1630.1,211.1,1651.5,200.5,1673.2,189.6z"/>
		<path class="st0" d="M1543.4,256.5c10.5-5.4,20.5-10.6,30.6-15.8c0.1,0.2,0.2,0.4,0.4,0.6c-9.6,5.8-19.1,11.6-29,17.6
			c0.8,1,1.4,1.9,2.1,2.9c15.4-8.9,30.5-17.6,45.7-26.4c7.3,7.3,15.2,13,25.8,14.4c-25.7-13.5-37.6-34.3-35.6-63
			c-6.2,1.9-44.5,25.1-46.5,28.6c9.4-4.9,18.3-9.4,27.1-14c0.1,0.2,0.2,0.4,0.3,0.5c-1.2,0.8-2.4,1.5-3.6,2.3
			c-7.9,4.8-15.9,9.5-23.8,14.5c-1.3,0.8-2.1,2.5-3.2,3.7c0.3,0.3,0.6,0.7,1,1c5.3-2.7,10.7-5.5,16-8.2c0.1,0.2,0.3,0.5,0.4,0.7
			c-4.7,2.9-9.3,5.9-14.1,8.5c-2.7,1.5-3.4,3.3-3.1,6.2C1534.9,239.9,1538.1,248.4,1543.4,256.5z"/>
		<path class="st0" d="M1606.5,266.5c-1.2,0.7-2,1.1-3,1.8c1.9,3.4,3.8,6.7,5.7,10c-0.2,0.1-0.4,0.3-0.5,0.4
			c-2.6-2.9-5.1-5.8-7.8-8.9c-1.7,1-3.3,1.9-5.2,2.9c2.8,4.6,5.5,9.1,8.2,13.5c-0.2,0.1-0.3,0.2-0.5,0.4c-3.5-4-7.1-7.9-10.8-12.1
			c-1.6,0.9-3.1,1.8-4.9,2.9c3.5,5.5,6.8,10.7,10.2,16c-0.2,0.1-0.3,0.3-0.5,0.4c-3.8-4.2-7.5-8.4-11.4-12.5c-0.8-0.8-2.1-1-3.2-1.5
			c-0.2,0.3-0.4,0.7-0.6,1c3.4,3.7,6.9,7.3,10,11.2c8.6,10.4,16.9,21.1,25.6,31.4c3,3.6,6.5,6.8,10.2,9.7c3.6,2.8,8,3.5,12.4,1.9
			c6.5-2.4,12.5-5.5,15.6-12.2c2.1-4.5,1-7.4-3.5-9.4c-12.3-5.6-23.1-13.1-31.2-24c-4.2-5.7-7.8-11.7-11.7-17.6
			C1608.5,270.1,1607.7,268.4,1606.5,266.5z"/>
		<path class="st0" d="M1725.7,171.6c-13.6-8.1-20.3-20.1-21.3-36.1c-9.8,3.9-19.4,7.8-29.5,11.9c2.3,5.2,4.5,10.2,6.8,15.3
			c2.5-1.2,4.5-2.1,6.6-3.1c0.1,0.2,0.2,0.4,0.3,0.5c-1.8,1.3-3.7,2.5-5.9,4c0.8,1.5,1.5,2.9,2.5,4.6c3.8-1.9,7.5-3.8,11.2-5.6
			c0.1,0.2,0.2,0.4,0.3,0.6c-3.4,2.2-6.7,4.4-10.4,6.9c0.8,1.4,1.5,2.6,2.4,4.1c5.7-2.9,11.1-5.6,16.5-8.4c0.1,0.2,0.2,0.3,0.3,0.5
			c-5,3.3-10.1,6.7-15.3,10.2c1,1.5,1.8,2.7,2.9,4.4c3.5-2.2,6.8-4.3,10.1-6.4c1.6-1,3.2-1.9,4.7-3c4.3-3.2,8.5-6.3,13.7-1.6
			C1722.7,171.2,1724.4,171.2,1725.7,171.6z"/>
		<path class="st0" d="M1760.3,234c-17.1-1.2-30.9-9.2-43.5-19.6c-20.4-16.9-34.7-38.3-44.9-62.6c-7.3-17.3-11.7-35.2-10.4-54.1
			c0.5-8.4,2.1-16.5,6.2-24.2c-0.9,1.3-2,2.5-2.8,3.8c-6,10.3-7.3,21.7-6,33.1c5.3,46.1,26.7,83.3,63.5,111.4
			c8.4,6.4,17.8,10.9,28.5,12.1C1754,234.3,1757.2,234,1760.3,234z"/>
		<path class="st0" d="M1729.4,166.2c-0.8,0.6-3.2-0.3-4.4-1.1c-9.4-6.5-14.7-15.6-15.5-27.1c-0.3-4.8,1.6-5.9,5.7-3.2
			c9.6,6.3,14.3,15.5,16,27.2C1730.7,163.2,1730.6,165.3,1729.4,166.2z M1723.6,160.3c0.8,0.6,2.2,0.9,3.1,0.6
			c0.5-0.2,0.9-1.9,0.7-2.8c-1.4-7.4-4.9-13.6-10.7-18.4c-0.7-0.6-2.2-1.1-2.8-0.8c-0.8,0.5-1,1.9-1.3,2.6
			C1714.4,149.2,1717.7,155.5,1723.6,160.3z"/>
		<path class="st0" d="M1789.1,184.2c-6.3-42.5-26.2-77.7-58.1-106.2C1761.6,107.2,1781.4,142.3,1789.1,184.2z"/>
		<path class="st0" d="M1620.4,279.1c1.6-2.5,2.8-4,3.6-5.6c1.7-3.4,1-4.8-2.2-6.9c-2.2-1.5-4.2-3.4-6.4-4.9c-0.6-0.4-2-0.3-2.7,0
			c-0.4,0.2-0.7,1.7-0.4,2.3C1614.8,268.8,1617.4,273.5,1620.4,279.1z"/>
		<path d="M1608.7,221.7c21.4-10.6,42.7-21.3,64.5-32.1c-1-1.5-1.8-2.9-3.2-5c-20.7,12.1-41.3,24.1-61.9,36
			C1608.3,221,1608.5,221.4,1608.7,221.7z"/>
		<path d="M1712.6,141.5c1.8,7.7,5.1,14,11,18.8c0.8,0.6,2.2,0.9,3.1,0.6c0.5-0.2,0.9-1.9,0.7-2.8c-1.4-7.4-4.9-13.6-10.7-18.4
			c-0.7-0.6-2.2-1.1-2.8-0.8C1713.2,139.4,1713,140.7,1712.6,141.5z"/>
	</g>
</g>
<g>
	<text transform="matrix(1 0 0 1 414.6118 515.2188)"><tspan x="0" y="0" class="st1 st2 st3">HISTO</tspan><tspan x="231.4" y="0" class="st1 st4 st3">PEDIA</tspan></text>
	<g>
		<path class="st0" d="M754.4,359.4c-0.6-0.3-0.9-0.5-1.2-0.7c-5-3.8-5.1-3.9-3.2-9.7c15.5-49.6-5.5-101.9-44.7-130.6
			c-22.1-16.1-46.8-24.5-74.1-23.8c-55.9,1.3-101.2,38.3-115.1,89.3c-6.2,22.8-5.8,45.2,1.4,67.6c1.2,3.6,1.1,3.6-5.1,7.6
			c-15.6-34-13-93.6,29.6-134.9c47.3-45.9,117.2-50.4,169.8-11C760.4,249.7,774,313.7,754.4,359.4z"/>
		<path class="st1" d="M606.2,242.4c-5-1-5.5-1.8-4.1-6.3c6.2,0,12.5,0,18.8,0c13.7,0,27.5,0,41.2,0c1.9,0,4.6-1.1,5,2.3
			c0.3,3.1-1.9,3.7-4.1,3.8c1.7,4.9,4.1,9.6,5,14.5c2.5,12.9-2.4,23.2-12.4,31.3c-3,2.4-6.4,4.4-9.7,6.6c-5.6,3.8-5.7,8-0.1,11.8
			c3.5,2.4,7.3,4.6,10.6,7.2c10.7,8.4,15.3,24.1,10.7,36.8c-0.4,1-2.1,2.2-3.2,2.2c-19.9,0.1-39.8,0-59.7,0.1
			c-2.4,0-2.9-1.3-3.4-3.1c-4.2-15.1,0.9-29.3,13.9-38.4c2.6-1.8,5.3-3.3,7.9-5.1c5.2-3.6,5.1-7.8-0.1-11.4
			c-3.5-2.4-7.3-4.6-10.5-7.3c-13.3-11.2-16.1-28.3-7.2-43.2C605.3,243.7,605.6,243.2,606.2,242.4z M604.9,344.7
			c9.5-5.4,18.4-10.5,27.6-15.8c0.8-8.2-1-17.4,1.1-26.2c0.5,0,1.1,0,1.6,0c0,9,0,18,0,25.9c10,5.8,18.9,10.9,28,16.2
			c1.6-11.8-3.1-22.5-12.5-28.9c-2.6-1.8-5.3-3.4-7.9-5.2c-8.5-5.9-8.6-14.3-0.1-20.2c3-2.1,6.2-3.9,9-6.2
			c7.7-6.1,12.4-13.7,11.8-23.5c-8.6-3.8-16.5-1.3-24.7,1c-4,1.1-9.1,0.3-13.2-1c-7.1-2.3-13.8-3-20.8-0.1c-0.3,7,1.6,13.8,6.6,18.7
			c4.1,4.1,9,7.6,13.8,11c8.4,5.9,8.7,14,0.4,19.9c-3.5,2.5-7.2,4.7-10.4,7.5C607.2,324.6,604,333.5,604.9,344.7z"/>
		<path class="st0" d="M620.6,425.5c-1.9,8,0.4,12,8,13.3c3.6,0.6,7.6,0.3,11.1-0.7c6.2-1.6,7.7-5.3,5.6-12.9
			c7.5-3.3,15.1-7,22.9-9.9c26.2-9.8,53.5-15.7,81-20.5c9-1.6,18.1-3.2,27.1-4.9c2.8-0.5,4.9,0,5.5,2.9c0.6,3.1-1.3,4.5-4.2,5
			c-21.5,4-43.1,7.7-64.5,12.2c-18.9,3.9-37.1,10-55,17.3c-2.5,1-4.1,2.1-4.3,5.3c-0.3,5.2-3.7,8.9-8.1,11.2
			c-9,4.7-18.2,4.6-26.9-0.8c-4.2-2.6-6.7-6.6-7-11.9c-0.1-1.1-1.6-2.6-2.8-3.1c-16.9-7.4-34.3-13.3-52.2-17.1
			c-22.4-4.7-44.9-8.6-67.4-13c-1.5-0.3-3.4-0.9-4.2-2c-0.7-1-0.8-3.4-0.1-4.4c0.7-1,2.8-1.6,4.1-1.4c12.2,2,24.3,4.2,36.4,6.3
			c26.9,4.9,53.4,11.1,78.8,21.6C610,420.2,615.3,423,620.6,425.5z"/>
		<path class="st0" d="M770.7,385.4c-15.4,2.2-30,4.1-44.5,6.3c-29.4,4.4-57.3,13.1-82.7,28.9c-0.4,0.3-0.8,0.4-1.8,0.1
			c2.4-2.2,4.7-4.5,7.1-6.5c2.5-2.1,5.1-4.1,7.8-6c18.2-13.1,38.3-22.5,59.3-30.2c10.2-3.8,20.5-7.6,30.8-11.2
			c1.3-0.4,3.5-0.4,4.4,0.4C757.5,372.9,763.7,378.9,770.7,385.4z"/>
		<path class="st0" d="M495.4,385.3c6.8-6.3,13-12.2,19.3-17.9c0.7-0.7,2.3-1.1,3.2-0.8c30.2,10.4,60.7,20.1,87.2,38.7
			c6.7,4.7,12.9,10,19.3,15c-0.2,0.3-0.4,0.6-0.6,0.8c-2.9-1.5-5.8-3-8.7-4.6c-23-13.4-48.1-20.8-74.3-24.7
			C526,389.5,511.1,387.5,495.4,385.3z"/>
		<path class="st0" d="M717.2,335.6c3.7,3.3,7.1,6.4,10.8,9.7c-35,19.5-68.8,39.9-92.1,73.6c2.8-10.5,7.8-19.8,14.4-28.3
			c12.9-16.6,29-29.6,46.2-41.4C703.2,344.5,710.1,340.2,717.2,335.6z"/>
		<path class="st0" d="M630,418.5c-23.6-33.2-56.9-54.1-92.1-73.3c3.6-3.2,7-6.2,10.7-9.5c3,1.9,6.1,3.7,9.2,5.6
			c19.8,12.6,38.7,26.4,54.1,44.3C620.2,395.3,626.6,406,630,418.5z"/>
		<path class="st0" d="M679.6,229.7c-30.6,0-60.5,0-91,0c3.3-4,7.2-5.7,11.6-5.8c18.5-0.5,37-0.8,55.5-1c4.3,0,8.5,0.6,12.8,1
			C672.7,224.3,676.3,226,679.6,229.7z"/>
		<path class="st0" d="M597,358.7c24.5,0,48.3,0,73.2,0c-4.7,3.8-7.7,7.7-14.1,7.5c-14.8-0.6-29.7-0.6-44.6,0
			C604.9,366.5,601.1,363.5,597,358.7z"/>
		<path class="st0" d="M587.4,383.4c-20.9-8.3-42.3-16.9-64.2-25.6c3-2.7,5.7-5.3,8.5-7.7c0.5-0.4,1.9-0.4,2.6,0
			C545.8,355,578.5,375.6,587.4,383.4z"/>
		<path class="st0" d="M742.5,357.8c-21.8,8.8-43,17.3-64.2,25.9c-0.1-0.1-0.2-0.2-0.3-0.2c6.4-4.4,12.6-9.2,19.2-13.3
			c11-6.8,22.2-13.3,33.4-19.7c1-0.6,3.1-0.3,4.1,0.4C737.4,352.8,739.6,355.2,742.5,357.8z"/>
		<path class="st0" d="M585.9,264.3c0-5.8,0.2-11.6-0.1-17.4c-0.1-2.1-1.1-4.1-1.7-6.2c-0.1-0.4-0.5-0.8-0.4-1c0.4-1.1,0.9-3,1.4-3
			c3-0.1,6.1,0.1,9.1,0.5c0.1,0,0.2,2.6-0.1,4c-0.3,1.6-1.5,3.1-1.5,4.6c-0.1,12.1-0.1,24.2,0,36.3c0,1.4,0.5,2.7,0.4,4.1
			c-0.1,1.5-0.2,4-0.8,4.2c-1.9,0.6-4.1,0.5-6,0c-0.5-0.2-0.5-2.8-0.6-4.2c0-1.2,0.4-2.5,0.4-3.7C586,276.4,585.9,270.4,585.9,264.3
			z"/>
		<path class="st0" d="M679.8,236.2c0.9,0.1,2.8-0.2,3.4,0.6c0.8,1,0.9,2.9,0.7,4.4c-0.2,1.7-1.5,3.4-1.5,5
			c-0.1,12.1-0.1,24.2,0,36.2c0,1.2,0.5,2.5,0.5,3.7c0,1.5,0,4-0.6,4.2c-1.9,0.6-4.1,0.7-6,0.2c-0.6-0.2-0.7-2.7-0.8-4.2
			c-0.1-1.4,0.4-2.7,0.4-4.1c0-12.2,0.1-24.4,0-36.6c0-1.3-0.5-2.6-0.9-3.8c-0.4-1.3-1.7-3.2-1.3-3.8c0.8-1,2.6-1.3,4.1-1.8
			C678.2,236,678.8,236.2,679.8,236.2z"/>
		<path class="st0" d="M586,329.6c0-5.5,0.1-11.1-0.1-16.6c0-1.8-0.6-3.6-1.2-5.3c-0.9-2.5,0-3.9,2.5-4.3c1.2-0.2,2.5-0.1,3.8,0
			c2.9,0.2,3.5,1.8,2.8,4.4c-0.5,2-1.1,4.1-1.1,6.1c-0.1,10.7-0.1,21.4,0,32c0,1.7,0.8,3.4,1.7,4.9c1,1.9,0.2,2.5-1.4,2.9
			c-2.7,0.6-7-2.8-7-5.7C585.9,341.9,585.9,335.7,586,329.6C585.9,329.6,585.9,329.6,586,329.6z"/>
		<path class="st0" d="M679.4,303.2c4.8,0.1,5.5,1.4,3.6,5.7c-0.5,1.2-0.6,2.7-0.6,4c-0.1,11-0.1,21.9-0.1,32.9
			c0,3.6-2.8,7.1-6.2,7.8c-0.6,0.1-1.7-0.2-1.9-0.6c-0.3-0.6-0.2-1.6,0-2.3c0.5-1.9,1.6-3.8,1.6-5.8c0.2-10.6,0.1-21.2,0-31.7
			c0-1.9-0.6-3.9-1.1-5.8C673.8,304.6,675.4,303.2,679.4,303.2z"/>
		<path class="st1" d="M637.3,384c2.2-7.2,5.3-9.6,12.4-9.8C649,380.3,644,384.3,637.3,384z"/>
		<path class="st1" d="M629.4,384c-6.5,0.3-10.7-3-12.5-9.5C623,374,627,377,629.4,384z"/>
		<path class="st1" d="M674.9,296.9c3.1-3,5.9-3.1,9-0.2C681.3,300.5,678.4,300.6,674.9,296.9z"/>
		<path class="st1" d="M593.9,296.8c-3.7,3.6-5.9,3.6-9.3,0.3C587.1,294,590.2,293.8,593.9,296.8z"/>
		<path class="st1" d="M663.8,299.5c-1.4,1-2.4,2.2-3,2.1c-0.9-0.2-2-1.3-2.2-2.2c-0.1-0.5,1.3-2,2-2
			C661.4,297.4,662.3,298.5,663.8,299.5z"/>
		<path class="st1" d="M610.7,299.6c-1.3,1-2.4,2.2-2.9,2c-0.9-0.3-1.5-1.5-2.2-2.4c0.8-0.6,1.5-1.8,2.3-1.8
			C608.6,297.4,609.4,298.5,610.7,299.6z"/>
		<path d="M604.9,344.7c-0.9-11.2,2.3-20.1,10.3-26.9c3.2-2.8,6.9-5,10.4-7.5c8.3-6,8-14.1-0.4-19.9c-4.8-3.4-9.7-6.9-13.8-11
			c-4.9-5-6.8-11.7-6.6-18.7c6.9-2.9,13.7-2.2,20.8,0.1c4.1,1.4,9.1,2.1,13.2,1c8.2-2.3,16.1-4.8,24.7-1c0.6,9.8-4.1,17.4-11.8,23.5
			c-2.8,2.3-6,4.1-9,6.2c-8.4,5.9-8.4,14.4,0.1,20.2c2.6,1.8,5.3,3.4,7.9,5.2c9.3,6.4,14,17.1,12.5,28.9c-9.1-5.3-18.1-10.4-28-16.2
			c0-7.9,0-16.9,0-25.9c-0.5,0-1.1,0-1.6,0c-2.1,8.8-0.3,18-1.1,26.2C623.3,334.1,614.4,339.2,604.9,344.7z M608.7,264.1
			c-0.4,0-0.8,0-1.3,0c-0.1,1.3-0.6,2.9-0.1,3.9c2.4,4.5,4.5,9.3,7.9,13c3.5,3.8,8.3,6.5,12.6,9.4c1.2,0.8,2.4,3.7,4.5,1.2
			c0.1-0.2-1.7-2.5-3-3.4c-9-5.7-17.7-11.7-19.9-23.3C609.3,264.6,608.9,264.4,608.7,264.1z"/>
		<path class="st1" d="M608.7,264.1c0.2,0.3,0.6,0.5,0.7,0.9c2.2,11.6,10.9,17.6,19.9,23.3c1.3,0.8,3.2,3.2,3,3.4
			c-2.1,2.4-3.2-0.4-4.5-1.2c-4.4-2.9-9.1-5.6-12.6-9.4c-3.4-3.7-5.5-8.5-7.9-13c-0.5-1,0-2.6,0.1-3.9
			C607.9,264.1,608.3,264.1,608.7,264.1z"/>
	</g>
</g>
</svg>
