<?xml version="1.0" encoding="UTF-8"?> <svg xmlns="http://www.w3.org/2000/svg" viewBox="0 0 184.6 39.68"><path fill="#fff" d="m48.81 20.69-.11-.03c-.1-.04-.21-.08-.31-.13l-1.89-.84c-.2-.08-.39-.18-.57-.3l-.02-.02c-.13.01-.19-.1-.28-.15-.08-.03-.16-.07-.24-.11-.19-.13-.37-.27-.56-.41-.17-.13-.34-.27-.53-.42.26-.05.51-.04.74-.07s.47-.07.71-.11a.837.837 0 0 0-.28-.31c-.04-.03-.09-.05-.14-.07-.02 0-.03-.02-.05-.03-.16-.12-.33-.23-.51-.31-.08-.04-.16-.08-.24-.11-.06-.03-.13-.07-.19-.11-.05-.05-.13-.05-.19-.02-.09.04-.14.02-.18-.08 0-.01-.01-.02-.02-.03-.13-.09-.26-.2-.38-.31-.09-.09-.2-.13-.28-.21-.07-.07-.11-.17-.23-.18h-.01c-.05-.15-.19-.22-.3-.32.09.04.19.07.28.12.61.34 1.22.68 1.84 1.02.1.05.21.09.32.12.15.05.29.13.41.23.03.03.06.04.1.05.23.07.45.18.65.33.04.02.07.05.11.07.15.07.18.21.26.35-.17 0-.33.03-.49.08v.09s-.05.01-.09.02c-.04 0-.08-.02-.11 0-.21.08-.42.17-.64.27.11.02.15.09.21.18.04.07.13.1.19.15.03.02.05.05.07.08 0 0 0 .02.02.02.35.21.73.39 1.12.52l-.12-.09a.714.714 0 0 0-.15-.08v-.03l.54.25v.04l-.2-.05v.02s.02.03.04.04c.06.03.11.06.17.08.28.08.55.21.79.38.03.02.06.03.09.04.24.09.46.22.66.37l-.02.02M41.17 2l.04.47c.12.03.12.03.11.15v.09c.08.21.15.42.24.64.02-.09.1-.17.19-.19.03-.01.04-.06.07-.09.07-.06.09-.17.19-.19 0-.08.08-.13.12-.2.14-.25.29-.5.43-.76.02-.04.04-.09.04-.14-.1.05-.12.16-.19.24.05-.18.14-.35.27-.49l-.06.18h.02s.04-.02.05-.04c.04-.07.07-.14.1-.21.09-.25.22-.49.38-.71.03-.04.05-.08.07-.13.1-.23.24-.44.41-.62 0 .03-.02.06-.03.09-.08.18-.17.35-.25.53-.26.54-.52 1.07-.78 1.61-.09.21-.2.41-.33.59l-.02.02c-.02.19-.2.29-.26.47-.06.13-.15.25-.25.36-.19.23-.39.46-.59.69l-.05.05c-.03-.49-.06-.98-.1-1.49-.12.11-.21.19-.3.27-.06.05-.11.12-.12.19 0 .01-.01.03-.02.04-.13.16-.25.34-.35.52-.04.07-.07.14-.1.21-.03.06-.07.12-.11.18-.05.05-.06.13-.03.19.01.04.01.09 0 .13 0 .04-.04.06-.09.06-.04 0-.08.07-.12.12l-.21.24s0 .02-.01.03c-.15.08-.16.28-.33.35-.05.02-.07.12-.12.17s-.12.07-.16.12c-.05.06-.1.11-.15.16.04-.09.08-.18.13-.27.36-.6.72-1.19 1.08-1.79.06-.1.09-.22.14-.32.07-.14.16-.27.24-.4.03-.03.05-.07.07-.11.08-.23.2-.45.35-.64.02-.03.04-.06.05-.09.07-.16.23-.2.37-.27m.23 1.51V3.5h-.06v.02h.06m5.54 4.74-.29.36s.06.06.06.08c0 .03-.03.06-.06.08-.04.03-.07.08-.09.13-.07.16-.15.32-.22.48-.02.03-.03.07-.04.1.09-.07.17-.03.26-.02.1 0 .2-.03.3-.02.12 0 .24-.03.36-.06.13-.03.26-.07.38-.11.13-.04.25-.08.38-.13.05-.02.1-.04.16-.07-.11-.08-.19.04-.28.02.15-.09.33-.15.5-.16l-.19.11h.1c.11-.04.21-.08.31-.13.17-.09.35-.15.54-.18.1-.02.2-.05.29-.1.22-.09.46-.14.7-.16-.03.02-.06.04-.09.05-.31.12-.62.23-.92.34-.41.16-.83.32-1.24.49-.21.09-.42.16-.63.21-.07.02-.15.02-.19.09-.01.02-.05.02-.08.01-.09 0-.19.01-.26.06-.04.02-.08.04-.12.04-.32.05-.65.09-.98.13-.12.02-.23.04-.35.05l-.02-.03.06-.09c.2-.24.41-.48.61-.72.09-.11.16-.22.24-.35-.14-.01-.28-.01-.41 0-.18.03-.35.08-.52.13-.09.02-.18.05-.27.07a.47.47 0 0 0-.16.04c-.1.05-.21.09-.33.1-.06.01-.12.06-.13.12-.03.09-.07.09-.18.07h-.2c-.1 0-.19.02-.29.03h-.12c-.05 0-.09.02-.14.02-.07 0-.14 0-.21.01-.02 0-.04-.02-.05 0-.19.09-.39-.03-.58.06v-.03c.06-.04.13-.07.2-.09.66-.19 1.33-.37 2-.56.14-.03.28-.09.4-.18a.23.23 0 0 1 .14-.04c.11-.02.21-.1.34-.06.01 0 .04-.01.05-.02.23-.13.48-.21.73-.24.03 0 .06-.01.08-.02.15-.05.31-.02.44.07m-3.3-1.94c.07.02.1-.03.13-.08a.79.79 0 0 1 .31-.29c.04-.02.07-.05.1-.09.09-.09.19-.16.31-.21-.03.08-.08.15-.14.21-.26.27-.53.54-.79.81a2 2 0 0 1-.22.19c-.09.07-.16.15-.25.22-.07.05-.14.1-.21.13l-.81.36c-.03 0-.06.02-.08.02l.37-.8c-.05.01-.1 0-.12.03-.1.07-.19.15-.28.23-.01 0-.02.03-.03.03-.08.02-.13.1-.1.18v.02c0 .01-.01.03 0 .02-.12.03-.22.07-.32.09s-.16.12-.27.1c-.08.1-.22.01-.29.13l-.02-.02s.07-.1.11-.14c.27-.22.55-.44.82-.67.05-.03.09-.07.12-.12.05-.09.13-.17.23-.2.02 0 .04-.02.05-.05.05-.08.12-.15.21-.2.05-.03.1-.08.13-.13.03-.04.07-.07.12-.06.19 0 .39.02.58.04.02 0 .03.01.04.02l-.42.18.07.12c-.09.03-.14.13-.11.22 0 .05.01.1.01.14 0 .06.03.09.08.07.28-.09.51-.28.67-.52Zm1.83 6.67c0 .06.01.1.02.14-.1-.02-.19.04-.22.13-.02.05-.05.09-.07.14 0 .03-.01.06-.01.09.28.07.58.05.86-.05v-.04l-.16-.02.32-.08-.14.13c.21 0 .36-.12.55-.11.17.01.34-.09.52-.04-.03.06-.1.06-.15.08-.04.01-.08.02-.11.03-.37.09-.73.17-1.1.27-.08.01-.17.03-.25.04-.11.05-.23 0-.34.05-.08.02-.16.02-.23 0-.3-.04-.6-.09-.9-.13-.02 0-.04-.01-.06-.02l.74-.48s-.08-.03-.12-.04c-.1 0-.19 0-.29.02-.08.01-.16.03-.24.05l-.07.14a.76.76 0 0 0-.33-.11c-.12 0-.25-.03-.37-.06-.07-.01-.13-.07-.23-.04.05-.06.12-.09.2-.1.35-.04.7-.09 1.05-.13.05 0 .11-.02.15-.04.09-.05.19-.07.29-.05.03 0 .05 0 .08-.01.09-.02.17-.04.25-.06.07 0 .13-.02.2-.04.04-.02.1-.02.14.01.17.11.33.24.48.37l-.44-.06m-3.15.65a8.512 8.512 0 0 0-1.4-3.65c-.12-.17-.23-.31-.33-.42-.04-.05-.09-.11-.11-.14-.37-.51-.83-.94-1.37-1.27-.06-.04-.14-.09-.22-.14-.43-.3-.9-.55-1.4-.73-.08-.03-.15-.05-.22-.08-.4-.16-.82-.28-1.25-.36a9.124 9.124 0 0 0-1.95-.12h-.01c-.34.01-.68.06-1.01.13-.22-.27-.45-.54-.69-.82l-.1-.12c-.24-.27-.51-.57-.83-.87-.7-.66-1.47-1.23-2.3-1.71l-.08-.05c-.26-.16-.54-.3-.83-.41l-.11-.04c-.73-.3-1.5-.48-2.29-.51h-.08c-.11 0-.27-.02-.46-.02-.27 0-.55.03-.82.09l-.07.02c-.21.05-.45.11-.71.19h-.04c-.39.12-.76.29-1.09.52l-.08.06c-.77.48-1.43 1.12-1.93 1.88-.05.07-.1.15-.15.23-.03.06-.07.12-.11.18-.15.25-.29.51-.42.78-.32.74-.57 1.52-.73 2.31v.02c-.15.22-.31.44-.48.64-.23.28-.48.56-.75.83-.12.12-.26.25-.42.39-.11.1-.22.19-.32.29-.46.43-.99.88-1.62 1.37-.97.76-1.98 1.46-3.06 2.2l-.12.08c-.27-.07-.54-.1-.82-.1-.48 0-.94.11-1.37.32l-.04.02a2.6 2.6 0 0 0-.36.13l-.45.2c-.35.15-.7.3-1.06.46-1.28.57-2.44 1.1-3.56 1.6-.48.22-.98.45-1.64.77-.4.19-.75.47-1.03.82-.08.09-.15.19-.23.29-.23.11-.44.24-.65.39-.67.47-1.1 1.21-1.17 2.03a9.8 9.8 0 0 0 .15 2.65c.27 1.54.78 3.03 1.52 4.4.43.83.96 1.6 1.58 2.29.47.54 1.06.95 1.72 1.21.44.23.94.35 1.44.36.09 0 .18 0 .26-.01.05 0 .11-.01.16-.02.22.05.45.08.67.08.31 0 .62-.05.92-.15v.03c.35 1.04.78 2.05 1.3 3.02.53.96 1.18 1.84 1.94 2.63.15.16.32.31.5.43.13.09.26.17.39.26.33.23.68.46 1.05.69.51.35 1.1.54 1.72.55.41 0 .82-.09 1.21-.24 1.11-.4 2.15-.98 3.08-1.72.71-.57 1.25-1.32 1.55-2.17.38-.96.17-2.06-.54-2.81-.41-.43-.95-.7-1.55-.76h-.11c-.11-.12-.22-.24-.32-.36s-.21-.26-.32-.42c-.1-.14-.21-.28-.33-.44-.28-.35-.53-.72-.74-1.12.41-.23.76-.55 1.03-.94.09-.13.17-.26.24-.4.22-.01.43-.03.63-.03h2.03c.76 0 1.54.07 2.19.13.84.07 1.68.2 2.51.38.31.05.61.14.9.26l.12.07c.07.04.15.09.22.13l.24.14c.24.14.49.27.76.41h.03c.51.3 1.05.52 1.61.68.36.09.71.15 1.01.2l.16.03c.19.03.39.05.59.05.12 0 .25 0 .37-.02.34-.03.63-.07.89-.11a3.8 3.8 0 0 0 1.04-.32c.16-.08.31-.16.44-.23.1-.06.2-.11.26-.14.53-.25.99-.62 1.35-1.08l.14-.17c.07-.08.14-.17.21-.25.02-.02.04-.04.05-.06.24-.26.44-.55.61-.86.36-.68.66-1.4.87-2.14.27-1.01.41-2.05.42-3.1.01-.42 0-.85-.02-1.24l.85-.44c.3-.16.57-.36.81-.6.35-.35.66-.67.94-.96.21-.22.38-.47.53-.73.08-.13.14-.25.18-.33v-.02c.37-.58.62-1.23.75-1.91 0-.03.01-.06.02-.09.08-.31.13-.62.15-.94.02-.47 0-.95-.07-1.42"></path><path fill="#1d1d1b" d="M12.75 17.11c.35-.23.72-.46 1.09-.71 1.13-.78 2.27-1.55 3.35-2.4.61-.48 1.21-.98 1.78-1.51.28-.26.56-.5.83-.77.31-.32.6-.64.88-.98.23-.28.45-.58.64-.88.14-.2.25-.43.31-.67.13-.68.33-1.34.6-1.97.12-.26.28-.5.42-.75l.06-.09c.36-.52.83-.96 1.37-1.28.15-.09.31-.15.47-.2.2-.06.4-.11.6-.16.25-.03.49-.03.74 0 .55.04 1.09.18 1.6.4.18.08.36.17.53.28.67.39 1.29.85 1.85 1.38.28.26.52.54.77.83.6.66 1.14 1.38 1.61 2.15 0 0 .02.01.03.02.22-.1.43-.22.65-.31.24-.11.49-.2.75-.27.22-.05.44-.08.66-.08.47-.03.93 0 1.39.08.37.08.73.2 1.07.34.4.17.78.39 1.13.64.26.16.49.37.67.62.13.19.29.35.43.54a6.06 6.06 0 0 1 .97 2.57c.04.33.06.66.04.99-.03.22-.07.43-.13.64-.07.39-.22.77-.44 1.11-.08.12-.13.25-.2.37-.06.1-.12.2-.2.29-.29.31-.59.61-.89.91-.07.07-.15.13-.24.18-.28.15-.56.3-.85.44-.06.03-.13.06-.2.07-.58.18-1.18.3-1.78.38-.03 0-.06.01-.09.02v.18c0 .44.01.87 0 1.31-.02.58-.11 1.15-.18 1.72-.09.54-.22 1.07-.39 1.59-.06.15-.14.3-.23.44-.08.15-.18.29-.26.44-.1.2-.23.38-.39.54-.21.22-.42.45-.63.67a.8.8 0 0 1-.21.15c-.31.12-.62.23-.93.34-.06.02-.11.02-.17.02-.31-.02-.62-.05-.93-.08-.06 0-.13-.02-.19-.04-.42-.14-.83-.33-1.22-.55-.26-.17-.5-.35-.75-.53-.07-.05-.13-.1-.21-.14.03.08.07.15.14.2.17.16.34.31.51.46.03.03.06.05.1.07.45.28.9.56 1.36.83.12.06.25.1.38.12.21.04.43.07.65.09.31.03.62.04.93.04.19-.02.38-.07.56-.15.27-.09.53-.21.79-.31a.85.85 0 0 1 .22-.04c.08-.01.15-.07.19-.14.05-.11.14-.19.25-.24.13-.05.16-.19.23-.28.06-.11.11-.22.15-.34.02-.05.03-.1.05-.15.19-.42.33-.86.42-1.31.13-.51.21-1.03.24-1.55.04-.63.06-1.26.07-1.89 0-.3-.04-.6-.06-.9-.01-.16-.02-.33-.02-.49 0-.05.01-.1.07-.1.04.01.06.04.07.08.05.33.12.65.13.98.03.61.07 1.22.05 1.84 0 .85-.12 1.69-.34 2.51-.17.58-.4 1.14-.69 1.68-.11.18-.23.34-.38.49-.12.14-.24.28-.35.42-.13.17-.29.31-.48.4-.26.12-.5.27-.75.4-.11.05-.22.08-.33.1-.25.04-.5.07-.75.09-.1.01-.2 0-.3 0-.33-.06-.65-.1-.97-.19-.39-.12-.76-.28-1.12-.48-.32-.17-.63-.34-.94-.52-.11-.06-.21-.12-.32-.18-.49-.25-1.02-.43-1.57-.52-.93-.2-1.87-.34-2.81-.43-.8-.08-1.6-.14-2.4-.14-.71 0-1.42-.03-2.12-.01-.64.02-1.28.08-1.92.12-.15 0-.29.02-.44.03-.05 0-.1.02-.15.03-.02.2-.02.4-.05.59-.03.25-.11.5-.26.71-.09.15-.25.24-.42.25-.09.02-.17.04-.25.08-.18.06-.36.12-.53.18-.14.05-.29.09-.46.15-.35-.18-.66-.43-.91-.74-.16-.23-.33-.44-.49-.67-.09-.14-.17-.28-.26-.42-.02-.04-.03-.1-.12-.06.35.75.83 1.43 1.41 2.02l.28-.06v.02l-.32.23c.05.7.25 1.38.6 1.98.09.18.18.37.28.55.28.52.61 1.02.98 1.49.23.3.45.61.69.9.23.28.48.55.73.81.11.11.22.21.34.31.03.03.07.05.11.06.16.05.33.08.49.13.12.04.23.06.32-.05.01-.01.03-.02.05-.02h.03c.07.06.08.16.05.25-.15.44-.42.83-.77 1.12-.71.57-1.52 1.02-2.38 1.33-.42.15-.45.16-.82-.08-.46-.29-.91-.6-1.37-.91-.02-.01-.04-.03-.06-.04-.61-.63-1.14-1.34-1.57-2.11-.45-.84-.83-1.71-1.12-2.61-.13-.41-.25-.82-.37-1.23-.03-.11-.03-.23-.16-.3-.03-.02-.04-.08-.07-.14-.52.01-1.04-.1-1.51-.34-.27.1-.55.21-.83.31-.22.13-.49.11-.68-.04-.12-.06-.23-.12-.35-.19l-.35.26a.72.72 0 0 1-.38-.1.95.95 0 0 0-.21-.09 1.87 1.87 0 0 1-.79-.57 9.29 9.29 0 0 1-1.24-1.8c-.62-1.14-1.04-2.38-1.26-3.66a7.53 7.53 0 0 1-.12-2.01c0-.1.06-.2.14-.25.17-.12.35-.21.54-.28.15-.05.28-.15.38-.28.14-.19.28-.37.42-.54a.91.91 0 0 1 .21-.18c.53-.25 1.05-.5 1.58-.74 1.18-.54 2.36-1.07 3.55-1.6.49-.22.99-.43 1.49-.65.01 0 .02 0 .03-.01.16-.04.32-.11.47-.18.22-.09.46-.09.67.01.23.08.45.21.71.33m14.07 1.34.11.14c.02.05.05.1.08.15.25.36.58.65.96.87.16.12.39.12.55 0a.3.3 0 0 1 .08-.04l.39-.2s-.02-.02-.02-.03a.914.914 0 0 0-.14-.07 2.18 2.18 0 0 1-.94-.84c-.16-.25-.3-.51-.42-.77-.3-.67-.55-1.37-.74-2.08-.11-.37-.15-.75-.12-1.14.01-.14.04-.29.07-.46-.19.1-.36.19-.53.27-.09.04-.16.12-.21.21-.13.27-.19.57-.17.87h.27c.19-.3.22-.3.34-.29.02.04.04.08.05.12.11.35.2.7.31 1.05.2.64.46 1.26.79 1.85.07.07.09.18.05.27l-.17.03c.12.15.24.28.34.42.06.08.11.16.15.26.02.04.01.09-.01.12-.04.02-.09.02-.13 0-.1-.06-.19-.14-.29-.2h-.03c0 .01.01.03.02.04v.1c-.07-.06-.12-.09-.15-.13-.13-.13-.25-.26-.38-.39l-.11-.14-.07-.16-.04.02.11.14M6.4 26.94c-.05-.17-.14-.32-.25-.46-.1-.14-.2-.28-.29-.42l-.38-.54s-.01.05 0 .07c.25.44.53.87.83 1.28.02.03.05.05.07.07l.29.44c-.03.08-.14.09-.13.2l.23-.12s.02.05.03.07c.14.21.29.43.44.64.02.03.05.05.08.07l.03-.03a6.87 6.87 0 0 0-.51-.81l.19-.17-.02-.03-.22.1-.39-.39m20.78-10.56c0 .06 0 .11.02.17.15.46.33.91.55 1.34.01.03.03.06.05.09.04.06.07.04.1-.01-.28-.51-.52-1.04-.72-1.59-.03-.12-.06-.24-.08-.36-.07-.33-.14-.67-.22-1-.02-.05-.04-.1-.07-.16-.01-.04-.04-.1-.02-.13.05-.08.06-.17.05-.25 0-.16.02-.32.08-.47a.32.32 0 0 1 .41-.2s.02 0 .03.01l.15.05a.341.341 0 0 0-.48-.09c-.04.03-.07.06-.1.1-.08.1-.13.21-.17.32-.06.22-.07.45-.02.66.1.41.19.82.3 1.23.04.1.09.19.15.27m.94 4.58c.05.05 0 .08-.02.12-.08.14-.26.19-.28.37 0 .02-.05.04-.08.06-.16.1-.33.18-.5.24-.28.13-.55.27-.81.42-.03.02-.06.05-.09.07l.1.16c.08-.04.15-.07.22-.1l1.97-.98c-.01.1-.1.11-.16.14-.61.32-1.21.63-1.82.94-.05.02-.09.05-.15.08l.13.17c.82-.35 1.57-.77 2.38-1.18-.13-.04-.22-.06-.31-.08-.05 0-.08-.02-.08-.07l-.36-.63-.15.27c-.22.03-.42.14-.58.3.2-.07.4-.18.57-.31m-1.01.34c-.02.09-.1.11-.17.14-.25.12-.51.25-.76.37-.04.02-.07.05-.1.08l.18.28 1.09-.6-.25-.27c-.01-.4-.03-.8-.04-1.2-.51.18-1 .42-1.46.71l1.34-.6c-.1.17-.14.21-.26.25l-.96.39c-.03.01-.06.05-.09.08l.02.03c.32-.09.63-.21.93-.34-.02.2-.2.15-.28.24l.12.02c-.04.06-.07.11-.1.16-.02.03-.05.07-.06.1 0 .07-.05.14-.12.16-.11.05-.22.11-.34.17l.19.31c.22-.11.42-.22.63-.32.15-.07.31-.12.47-.18m-9.6 12.84c-.12-.13-.24-.24-.35-.37-.27-.33-.54-.65-.8-.99-.53-.65-1-1.36-1.4-2.1-.23-.44-.4-.9-.6-1.36-.02-.04-.03-.08-.05-.12-.07.1-.11.21-.19.27-.1.05-.14.17-.1.27.06.29.13.57.2.86.03.1.05.17-.04.25-.03.03-.09.08-.03.16l.13-.21.08.15c.09.18.17.36.27.54.12.2.26.39.38.59.09.13.16.27.25.41.34.51 1.2 1.62 1.25 1.71.23.19.45.39.65.6l-.03.04s-.09-.06-.14-.09c-.19-.16-.38-.32-.56-.48-.42-.37-.8-.78-1.15-1.22-.47-.59-.88-1.23-1.23-1.9a8.09 8.09 0 0 1-.4-.96c-.2-.53-.3-1.09-.3-1.65l-.54.21c.07.17.14.31.19.46.05.15.1.3.13.46.17.74.47 1.44.87 2.08.22.39.47.78.72 1.15.25.4.53.77.85 1.11.07.07.14.15.2.23a.275.275 0 0 1-.15-.08c-.22-.23-.45-.47-.67-.71-.09-.09-.17-.19-.24-.3-.33-.54-.66-1.09-.97-1.64-.37-.62-.63-1.29-.77-2-.03-.16-.07-.31-.1-.47a.284.284 0 0 0-.18-.23c-.31.11-.61.21-.9.33-.09.03-.18.08-.26.14-.16.15-.31.31-.46.47-.03.04-.04.09-.06.13.21-.03.26-.24.45-.29-.03.08-.06.14-.08.2l-.24.51c-.05.08-.04.18.02.26.02-.05.04-.09.06-.12.1-.22.21-.44.29-.66.09-.24.3-.32.52-.46l-.77 1.6-.09-.25c.04.29.11.58.22.85.02-.14.03-.28.04-.42-.01-.17.01-.34.06-.5.15-.31.29-.62.45-.92.07-.15.19-.27.34-.34-.1.37-.18.71-.3 1.04-.14.39-.31.76-.47 1.14-.03.05-.06.1-.1.14.01.08.05.16.11.22.24-.75.54-1.48.91-2.19.04.22.07.4.1.58 0 .06 0 .13-.02.19l-.36.96c-.12.32-.25.64-.37.96-.02.05-.03.1-.04.15l.05.02c.15-.32.27-.66.41-.99s.27-.67.42-1.03c.08.12.1.27.05.4s-.07.26-.11.39c-.09.31-.19.62-.29.93-.08.23-.18.45-.26.68-.02.05-.06.1.01.19.05-.1.1-.17.13-.26l.51-1.26c.06-.14.12-.28.17-.42h.04c.03.09.05.19.06.28.01.31.02.62.02.94 0 .08-.02.15-.04.22-.14.38-.28.76-.41 1.15-.04.07-.04.16 0 .23.26-.64.47-1.27.74-1.91v.67c0 .25-.04.51-.14.74-.04.09-.06.19-.09.29l-.18.61c-.03.07 0 .15.06.18.11-.32.2-.64.31-.95.09-.32.2-.63.33-.94.02.03.04.06.04.1 0 .22 0 .45.02.67.01.22-.03.45-.12.65-.1.22-.17.45-.26.68-.04.08-.03.18.03.24.12-.29.23-.59.32-.89.12-.29.22-.59.33-.91.07.1.12.18.18.26.04.05.05.12.03.18-.17.59-.35 1.17-.52 1.77l.13.11c0-.11.03-.22.06-.33.15-.43.31-.87.46-1.3.02-.05.05-.1.09-.19.02.05.04.09.05.14 0 .05-.01.09-.03.14-.07.39-.17.77-.31 1.14-.06.12-.11.25-.15.38-.03.1-.02.11.13.14.04-.28.13-.55.27-.79.11-.26.21-.53.35-.81.03.06.07.09.06.12-.12.57-.3 1.12-.53 1.65l-.17-.08-.04.06c-.26-.18-.5-.38-.73-.6-.43-.49-.81-1.03-1.12-1.61-.36-.66-.65-1.35-.86-2.07-.12-.38-.21-.77-.26-1.17l-.06-.72c0-.06 0-.13-.11-.14-.06.25-.11.49-.16.74 0 .07 0 .14.03.21.11.31.21.62.33.93.22.57.44 1.14.68 1.71.37.92.9 1.76 1.56 2.49.09.11.19.21.29.31.33.26.66.51 1 .75.23.16.47.3.7.45.08.05.18.06.26.02.52-.2 1.02-.47 1.48-.79.42-.27.8-.61 1.1-1.01.04-.05.1-.09.05-.18l-.12.06a.55.55 0 0 0-.07.09c-.44-.13-.62-.22-.72-.38.06 0 .12.02.18.03.11.04.22.08.33.13.11.05.2.08.29-.04.05-.05.1-.09.17-.13l-.06-.22.21-.09-.48-.17-.34-.25Zm14.05-21.15c-.02-.07-.06-.07-.12-.04-.34.19-.69.36-1.02.57-.64.41-1.27.81-1.94 1.17-.24.13-.48.28-.72.42-.11.06-.21.14-.33.22l.08.16c.07-.04.12-.07.17-.1.41-.25.82-.51 1.23-.77.64-.4 1.29-.81 1.93-1.21.23-.15.47-.29.71-.43l-.5.45c.07.08.22.02.29.16l-.76.47c.06 0 .12 0 .18-.02.39-.14.79-.28 1.18-.42.26-.1.52-.2.77-.3.04-.02.1-.06.15.04-.35.13-.68.29-.99.48-.31.2-.62.38-.95.59l.22.04-.19.12-.33-.12c.24-.13.44-.23.64-.35s.39-.23.59-.35c-.53.14-1.03.35-1.57.44.26-.23.57-.38.87-.6a.59.59 0 0 0-.14-.02c-.26.02-.51.12-.71.27-.06.04-.11.08-.18.12l-1.83 1.14s-.05.04-.08.06c.18.46.42.89.7 1.29 0-.05-.02-.09-.04-.13-.17-.33-.34-.66-.5-.99-.02-.05-.08-.09-.04-.16.43.63.76 1.33.96 2.06l-.14-.22h-.02l.09.49 3.44-1c-.19-.11-.35-.21-.51-.29a.465.465 0 0 0-.23-.06c-.15 0-.29.02-.44.02-.07 0-.14.02-.18-.06.04-.12.15-.11.24-.13.34-.1.69-.19 1.04-.29.06-.02.13-.02.17-.09l-.61-.09v.17h-.03c0-.06 0-.12.01-.18.27-.05.54-.02.79.1-.04.09-.12.11-.2.13-.32.09-.65.19-.97.28-.03.01-.07.03-.1.04.19.01.38.01.57-.01.29-.03.57-.07.86-.12.06 0 .1 0 .13.08-.07.02-.13.03-.19.04-.19.03-.37.05-.56.08-.05 0-.11 0-.13.09.29.15.61.26.93.31-.13.15-.29.26-.48.33-.21.05-.41.12-.61.18-.87.25-1.74.51-2.61.76-.03.01-.06.03-.09.05s-.17.01-.17.01l.03.74c.11-.03.2-.06.3-.09.41-.12.85-.15 1.28-.09.31.05.62.13.93.2.75.19 1.5.33 2.27.43.11.02.22.02.33.02.88-.06 1.75-.23 2.59-.51.26-.11.52-.24.77-.38.07-.05.14-.11.2-.17.22-.17.42-.36.59-.58.01-.02.04-.03.05-.05.12-.13.24-.27.35-.42.17-.26.32-.54.47-.81.04-.08.08-.17.1-.26.07-.27.13-.53.19-.8.01-.05.02-.09.02-.14v-.6c0-.21-.02-.42-.05-.63-.03-.12-.06-.24-.1-.36-.07-.26-.13-.53-.22-.78a8.39 8.39 0 0 0-.45-.96c-.14-.22-.29-.44-.46-.64l-.06-.06-.4-.39s-.08-.07-.12-.11c-.19-.13-.39-.27-.59-.39-.35-.21-.72-.37-1.11-.48-.3-.09-.6-.15-.91-.19-.33-.06-.66-.07-.99-.04-.18.02-.35.07-.52.09-.35.04-.69.17-.98.36-.22.14-.47.25-.68.4-.26.2-.5.42-.75.64-.1.08-.2.17-.29.26-.19.2-.37.42-.55.62-.37.41-.73.83-1.1 1.24-.16.2-.33.38-.52.55-.34.3-.7.57-1.06.86-.03.03-.06.05-.1.08l.24.33s.08-.04.12-.07c.39-.24.78-.49 1.17-.73.46-.29.92-.57 1.38-.86.18-.14.39-.23.6-.28.04 0 .08-.02.12-.04l.54-.21c.04-.01.08-.02.13-.03-.12.13-.25.24-.38.35-.04.03-.08.05-.12.07m-18.64 10.3c.23-.07.43-.13.63-.18.31-.08.63-.14.94-.23.78-.21 1.55-.43 2.35-.58.63-.12 1.26-.23 1.89-.34.15-.02.3-.08.42-.16.15-.1.32-.18.47-.28.14-.07.28-.15.4-.25.33-.31.64-.64.96-.96.05-.04.08-.1.1-.16.1-.33.21-.66.3-1 .27-.91.45-1.85.55-2.8.04-.31.03-.62-.04-.93-.04-.15-.08-.31-.11-.46-.17-.81-.27-1.64-.32-2.47-.04-.66-.05-1.33 0-2v-.31l-.03-.03s-.01.05-.02.07c-.34.47-.71.91-1.09 1.34-.29.3-.57.62-.87.9-.79.74-1.61 1.43-2.46 2.09a42.03 42.03 0 0 1-4.07 2.81c-.42.25-.85.47-1.28.7-.07.03-.1.1-.1.17.01.33 0 .67.05 1 .05.31.12.62.2.93.26 1.01.6 1.99 1.03 2.93.03.07.07.15.1.21m18.29-12.62s0-.02-.01-.04c-.41-.63-.87-1.22-1.37-1.78-.07-.07-.13-.15-.2-.23a5.11 5.11 0 0 0-.45-.48c-.45-.43-.96-.8-1.5-1.12-.25-.12-.49-.26-.74-.37-.12-.05-.25-.09-.39-.12-.18-.04-.37-.05-.56-.09-.24-.05-.49-.03-.72.07-.11.05-.23.09-.35.12-.34.09-.63.3-.83.59-.11.16-.25.3-.37.45-.07.06-.12.13-.17.2-.16.38-.34.75-.46 1.15-.19.66-.29 1.34-.29 2.02 0 .2.02.4.03.62.05-.04.08-.05.11-.07.17-.13.41-.16.6-.06.1.05.19.11.28.18.34.3.63.66.85 1.06h.14v.02l-1.62.45.03.17.1-.03c.5-.14 1-.29 1.5-.42.1-.02.18-.08.24-.16.04-.05.09-.1.13-.14l.35.53.63-.26c.08.06.15.12.23.17.1.06.16.16.16.27.01.14.05.28.08.44l.38-.2c.12-.1.3-.08.4.04.12.11.27.18.43.2.17.04.35-.01.47-.14.36-.36.74-.71 1.09-1.08.43-.45.83-.93 1.24-1.4.06-.07.13-.14.19-.21s.14-.13.16-.2c.03-.11.16-.07.19-.18m-1.81 9.92-.44.22c.08.21.16.4.24.59l-1.23.83c0 .07 0 .14.01.2.01.31.03.62.03.94 0 .21-.03.41-.08.61-.03.08-.07.16-.14.22-.08.09-.09.1-.01.19.19.2.38.4.58.6.19.19.39.36.58.55.28.28.61.5.98.65.35.14.72.23 1.08.34.05.01.09.01.14 0 .32-.03.63-.05.95-.08.07 0 .15-.03.21-.08.31-.21.62-.43.92-.66.06-.04.1-.09.14-.15.16-.27.31-.54.47-.81.06-.1.12-.2.16-.31.19-.56.32-1.13.39-1.72.05-.45.08-.91.09-1.37 0-.37 0-.73-.02-1.1-.01-.28-.04-.56-.07-.85-.06 0-.1-.01-.15-.02-.16 0-.33-.02-.49-.05-.79-.16-1.58-.33-2.37-.51-.3-.09-.62-.12-.94-.1-.21.03-.42.03-.63.04-.06.11-.13.21-.21.31a.52.52 0 0 1-.24.2c-.16.08-.29.19-.41.32.13.1.24.19.36.28.06.04.1.1.09.18v.53M7.35 29.13c.08-.06.08-.13.04-.18-.05-.06-.13-.14-.19-.13-.09 0-.12-.04-.16-.08-.36-.35-.67-.75-.93-1.17-.2-.34-.41-.68-.59-1.02-.22-.41-.43-.84-.65-1.25-.08-.16-.16-.33-.24-.49-.1-.17-.18-.35-.24-.54h.14l.21.21c.16.12.32.22.48.34.06.05.15.07.23.06.2-.04.41-.05.61-.05.15 0 .3-.02.45-.07.16-.05.31-.11.46-.17.14-.05.29-.1.43-.16.26-.12.51-.25.75-.39.27-.16.58-.24.89-.22.37 0 .73.09 1.04.29.03.02.06.03.09.04.04-.06.08-.11.12-.16.12-.13.23-.27.36-.39.28-.28.57-.57.87-.83.11-.08.14-.23.07-.35-.12-.31-.23-.62-.33-.93-.38-1.07-.56-2.2-.56-3.33 0-.03 0-.05-.01-.07-.58.31-1.15.58-1.71.92.15.11.32.06.45.13v.04c-.14.24-.29.49-.44.73-.03.04-.08.07-.13.09-.32.11-.63.22-.95.33a.32.32 0 0 1-.14.03c-.3 0-.6 0-.9-.02-.08 0-.16 0-.24.04-.24.1-.5.19-.73.31-.12.09-.3.06-.39-.06-.04-.03-.08-.06-.13-.09-.04-.03-.07-.07-.11-.11l.24-.13h-.15l-.86.27c-.08.02-.15.03-.23.05-.02-.1.03-.12.08-.14.22-.11.44-.22.67-.31.79-.34 1.58-.65 2.36-1 1.05-.47 2.09-.95 3.14-1.42.18-.08.34-.16.38-.37.02-.04.04-.09.06-.13.01-.04.02-.07.02-.11-.08.03-.13.06-.18.08-1.6.72-3.19 1.44-4.79 2.16-.56.25-1.13.5-1.7.76-.07.02-.13.07-.17.13-.13.29-.24.58-.33.88-.03.17-.04.35-.02.53-.01.47.01.94.07 1.41.07.34.15.67.26 1 .09.32.21.63.37.91.06.1.11.2.15.3.3.7.66 1.38 1.08 2.03.33.58.75 1.11 1.23 1.57.12.13.26.22.42.29m24.67-19.14c-.11-.15-.21-.28-.31-.42-.2-.28-.37-.58-.58-.84-.33-.41-.68-.8-1.04-1.18-.23-.25-.49-.47-.74-.71-.3-.3-.65-.57-1.02-.78-.1-.06-.2-.13-.3-.19-.16-.1-.32-.2-.49-.29-.2-.1-.41-.16-.6-.25-.17-.07-.36-.13-.54-.15-.16-.03-.33-.04-.49-.07-.31-.06-.64-.04-.94.07-.08.03-.16.05-.24.06-.28.04-.53.17-.73.36-.13.12-.26.22-.4.32-.25.17-.45.4-.59.66-.1.17-.21.34-.31.51-.04.06-.07.12-.1.19-.14.37-.29.74-.39 1.12-.16.54-.27 1.09-.31 1.64-.02.34-.08.68-.08 1.02-.03.84 0 1.69.12 2.52.08.58.16 1.16.27 1.73.26 1.34.64 2.65 1.13 3.92.32.82.69 1.63 1.11 2.41.1.19.2.38.31.56.52.87 1.1 1.71 1.72 2.5.26.33.54.64.83.94.26.27.54.52.82.78.13.11.26.22.4.32.14.11.29.2.43.31.23.18.48.32.74.44.05.02.09.03.14.04a4.79 4.79 0 0 0-.37-.25c-.16-.09-.32-.2-.47-.32-.43-.37-.85-.74-1.27-1.12-.28-.24-.54-.49-.78-.76-.5-.6-.97-1.22-1.4-1.86-.15-.25-.28-.5-.39-.77 0 0 0-.03.02-.07.06.06.11.11.15.16.18.22.35.44.53.66.14.17.28.35.44.51.31.32.64.63.93.96.22.24.47.47.72.67.09.07.22.07.31 0a.435.435 0 0 1-.06-.07c-.66-.61-1.26-1.29-1.8-2.01-.42-.57-.8-1.17-1.14-1.79-.56-1-1.05-2.03-1.45-3.1-.34-.83-.6-1.7-.78-2.58-.05-.25-.12-.5-.18-.76-.2-.94-.31-1.89-.34-2.85-.01-.41 0-.81.02-1.22.02-.42.07-.84.14-1.26.11-.65.33-1.27.64-1.84.14-.29.34-.55.58-.77.23-.18.45-.38.68-.57.05-.04.1-.06.16-.08.31-.08.62-.15.93-.22.06-.02.12-.02.17-.01.33.05.65.09.97.17.24.07.48.17.71.27.35.14.67.33.96.56l1.24 1.06c.56.48 1.07 1.02 1.52 1.6.12.16.25.31.38.47l.42-.32m-8.71 11.36c-.03-.06-.07-.11-.11-.17l-.04.03c.22.39.43.78.65 1.17.22.39.46.78.69 1.18.22.38.48.75.68 1.14-.03 0-.06 0-.09-.01l-.86-.56a.573.573 0 0 1-.11-.11c-.22-.32-.43-.64-.64-.95a.435.435 0 0 1-.06-.07c.3.6.67 1.16 1.09 1.68-.04 0-.09 0-.13-.02-.3-.11-.6-.22-.89-.34a.35.35 0 0 1-.15-.12c-.2-.31-.4-.63-.59-.94-.14-.23-.26-.46-.4-.69-.02-.03-.04-.05-.06-.08.16.37.34.74.54 1.09.2.35.42.69.65 1.07-.08-.01-.13-.01-.17-.03-.24-.06-.48-.12-.72-.17a.333.333 0 0 1-.23-.17l-.27-.45c.05.14.11.27.18.39.09.12.16.26.21.4-.02 0-.04.01-.07.01-.25 0-.51.02-.76.03-.06 0-.12-.02-.16-.05-.13-.09-.25-.18-.37-.27-.02-.01-.04-.05-.04-.05.05-.07-.03-.08-.06-.11-.05-.05-.09-.09-.13-.14l-.15-.18-.03.02.2.35-.34-.11c-.06.04-.09.08-.12.09-.13.02-.27 0-.39-.07-.25-.14-.5-.27-.74-.41-.03-.02-.07-.03-.1-.04l-.02.02.34.5c-.05 0-.08.02-.1.02-.23.02-.46.03-.69.05-.71.08-1.43.16-2.14.25a.67.67 0 0 1-.5-.09l.03.15c-.18-.09-.34-.18-.5-.26a.26.26 0 0 1-.13-.22l2.61-.44s-.06-.03-.09-.03c-.22.02-.44.05-.67.07-.12.01-.24.06-.35-.03-.02-.01-.06 0-.09 0l-1.2.18c-.31.05-.62.09-.93.13-.08.01-.12 0-.12-.09.09-.03.18-.08.26-.14a.2.2 0 0 1 .12-.08c.07-.02.15-.04.22-.05.16-.03.31-.07.47-.1-.47.03-.94.13-1.39.3h.2c-.07.14-.12.16-.25.12-.17-.05-.34-.1-.51-.16-.08-.03-.16-.07-.24-.12-.03.08-.02.18.03.25.18.26.29.57.49.81v.04l-.24.16.4.39h.02l-.07-.15c.19-.02.27.13.39.2.12.08.23.18.35.27l-.02.03-.33-.08-.02.04.46.38-.2.1c.04.09.09.07.15.05.18-.07.35-.13.53-.19.05-.02.11-.05.18-.08l-.56-.15c-.05-.05-.09-.11-.14-.16-.12-.11-.24-.21-.35-.32a.834.834 0 0 1-.08-.12c.1 0 .18-.03.23 0 .21.12.41.25.61.38.01.01.03.02.03.04.05.11.18.18.3.16.07 0 .14.01.22.02v.03l-.14.06v.01l.35-.07c-.34-.18-.69-.36-1.05-.55-.02 0-.02-.03-.03-.05.25.08.44.25.69.33.03-.13.04-.14-.05-.17-.1-.02-.18-.1-.21-.2.02 0 .04-.01.05-.01.27.09.55.17.82.27.1.03.18.1.22.19l-.22.08v.06c3.71-.48 7.48-.29 11.13.56-.19-.16-.15-.21-.38-.1-.11-.11-.23-.21-.33-.33-.29-.31-.56-.63-.85-.95-.03-.03-.07-.08-.06-.1.03-.13-.05-.19-.13-.27s-.15-.15-.22-.23c-.4-.44-.76-.92-1.07-1.42-.44-.7-.86-1.41-1.25-2.14-.33-.61-.59-1.26-.89-1.89l-.21-.48c.05.26.12.51.21.75m-14.3 9.26c.2.05.39.11.58.2.16.09.32.16.5.2.11.04.23.02.32-.05a.36.36 0 0 1 .18-.07c.26-.06.51-.16.74-.29.33-.19.7-.32 1.07-.39.38-.07.76-.18 1.11-.34.09-.04.2-.07.21-.21 0-.02.04-.04.06-.06l.15-.09c.26-.14.22-.2.13-.4-.1-.22-.18-.45-.27-.67-.01-.04-.03-.07-.05-.11-.04.02-.08.03-.11.04-1.02.4-2.03.79-3.05 1.19-.41.16-.83.3-1.25.45-.07.03-.15.03-.18.12-.04.11-.09.21-.12.31l-.03.18m4.4-11.13a1.65 1.65 0 0 0-.59-.3.58.58 0 0 0-.67.27c-.07.12-.13.25-.16.39-.12.48-.14.98-.07 1.48.05.45.13.9.24 1.34.29 1.2.73 2.37 1.3 3.47.11.21.23.42.35.63s.23.42.36.63c.33.54.73 1.03 1.17 1.48.2.21.44.4.69.54.15.08.31.14.47.19.21.05.42-.01.56-.18.14-.15.23-.35.26-.55a2.7 2.7 0 0 0-.39.27c-.13.12-.3.17-.48.14a.948.948 0 0 1-.45-.19c-.2-.15-.39-.32-.57-.5-.2-.21-.38-.44-.55-.69-.28-.41-.57-.83-.81-1.26-.3-.54-.56-1.09-.81-1.65-.5-1.07-.85-2.22-1.03-3.39-.04-.33-.07-.67-.08-1-.01-.26.04-.52.16-.75a.59.59 0 0 1 .78-.32c.01 0 .02 0 .03.01.04.02.07.03.12.06l.14-.1m16.2 2.38c-.12.05-.21.1-.31.13-.16.07-.36.04-.49-.08-.03-.03-.06-.05-.1-.08-.28-.17-.53-.38-.73-.63-.42-.5-.75-1.07-1-1.68-.29-.73-.45-1.5-.47-2.29 0-.03 0-.05.01-.08.02-.05.05-.1.07-.15.04-.12.07-.24.11-.35.05-.16.17-.28.33-.32.05-.02.09-.03.14-.06a1.07 1.07 0 0 0-.42-.19.424.424 0 0 0-.48.21c-.06.12-.11.25-.14.38-.06.31-.06.62-.02.93.08.76.28 1.5.59 2.19.3.71.69 1.37 1.18 1.96.18.23.39.42.63.58.13.08.27.14.42.18.18.05.38-.02.48-.18.1-.15.17-.32.19-.49m-1.58.34a9.322 9.322 0 0 1-2.1-4.61l-1.31.51c.07.26.13.52.19.77.02.09.04.18.07.27.02.06.05.09.13.05 0-.06-.01-.13-.03-.2-.02-.15-.06-.29-.08-.43 0-.06-.03-.14.06-.16.09-.03.1.06.12.12.03.11.07.21.1.32l.2-.1c.03-.13-.05-.29.15-.35.15.52.29 1.03.46 1.54s.38 1 .57 1.5l-.1-.02c.05.16.18.28.12.44h-.04c-.12 0-.16.03-.12.12.04.12-.01.22-.02.34l-.22-.03.22.47 1.46-.63.02.03-.16.14.29-.08M3.36 22.45v-1.33l-.33.17c-.12.06-.23.11-.34.16-.05.59-.02 1.19.08 1.78l.09-.06c.09.06.08.2.19.21l.1.31c0-.36-.03-.71-.05-1.06 0-.12.03-.15.15-.17l.11-.02m20.2-7.16.02.03c.61-.18.67-.19.79-.12-.15.06-.29.11-.43.17-.15.04-.29.11-.41.2.04 0 .08 0 .11-.02.21-.08.42-.16.62-.25.1-.05.16-.04.22.07-.04.02-.07.04-.11.05l-.69.27c-.06.02-.12.04-.12.15.43-.09.8-.31 1.21-.44l-1.1-1.32-.47.2c.03.14.04.27.08.39.01.04.05.07.09.09a.6.6 0 0 1 .33.18c.11-.06.2-.05.25.09.01.03.07.04.12.06l-.5.2M6.92 25.91c-.18 0-.34.09-.41.26-.02.07-.03.14-.04.21a.6.6 0 0 0 .43.65c.12.02.25 0 .35-.08.18-.16.24-.4.16-.63a.544.544 0 0 0-.5-.4m-1.46 2.26-.04.02a15.506 15.506 0 0 1-2.52-4.96c-.01.03-.02.07-.01.11.05.23.09.47.17.7.31.87.69 1.72 1.16 2.52.34.63.75 1.23 1.23 1.77.26.29.54.56.78.86.04.05.09.09.13.13a.418.418 0 0 0-.11-.18c-.05-.05-.09-.11-.13-.17s-.09-.12-.04-.2a.916.916 0 0 1-.37-.36c-.18-.28-.37-.56-.55-.84-.02-.03-.04-.05-.06-.08l-.02.02.38.65m1.67-.59c.05-.02.11-.03.16-.06.85-.33 1.7-.66 2.55-1.01.91-.37 1.82-.75 2.73-1.13.03-.02.06-.03.09-.05-1.89.63-3.73 1.38-5.52 2.25m16.7-13.65 1.14 1.39v-.48a.3.3 0 0 0-.08-.22c-.17-.2-.33-.4-.5-.6a.976.976 0 0 0-.18-.17.442.442 0 0 1-.15-.23c-.02-.04-.05-.07-.07-.1l-.16.4M8.66 25.01a.411.411 0 0 0-.44.37v.02c-.02.28.18.53.46.56.23.05.46-.09.51-.32v-.02a.524.524 0 0 0-.43-.61h-.11m15.49-11.45c.12-.04.22-.06.31-.09.13-.05.28-.04.4.03.1.03.2.05.3.05l-.22-.55-1.73.49.04.17c.26-.1.5-.23.75-.3l.15.19m3.42 2 .16.29c.03.05.09.07.12.12.32.53.58 1.09.77 1.68 0 .02.02.03.03.05l.14-.05c-.25-.77-.62-1.5-1.07-2.17l-.15.08m4.88 1.31v-.03s-.08 0-.12.01c-.31.08-.62.16-.93.23l-2.18.54c-.03 0-.07.03-.07.04.02.08-.04.08-.08.08-.09.02-.17.02-.26.04-.07 0-.15 0-.19.12 1.26-.27 2.46-.67 3.68-.97.05-.02.09-.04.14-.06m-4.96 4.63c0-.07-.02-.14-.04-.21a.338.338 0 0 1-.01-.2c.02-.24.03-.48.03-.72a.15.15 0 0 0-.04-.11c-.08-.07-.16-.13-.27-.22v1.15s.02.07.04.09c.08.07.17.12.29.21m-16.98 3.24c.32-.03.63-.12.91-.26.14-.08.29-.15.44-.23.03-.02.05-.07.07-.11-.04-.02-.08-.06-.12-.06-.09 0-.17.02-.26.05-.29.1-.59.21-.88.33-.13.06-.26.14-.38.22-.06.02-.08.09-.06.15 0 0 0 .02.02.03l.29.03v-.04l-.2-.07c.39-.22.82-.39 1.25-.5l-1.09.47m18.09-4.39-.26.12c.1.25.2.49.3.73.02.04.05.07.08.08.09.03.18.04.28.06l-.41-.98m-5.33-6.28c.16-.06.31-.11.45-.16.02 0 .04-.02.05-.04.06-.13.11-.26.18-.43l-.72.29.04.35m1.74-1.09.32.74.21-.05c0-.35-.28-.58-.35-.9l-.06.06c-.04.05-.08.1-.12.16M12.12 24.47c-.22.03-2.4.76-2.49.83.85-.21 1.68-.49 2.49-.83m12.41-10.41.39.47.24-.63-.63.17m4.22 6.55c.16-.01.3-.01.41-.16l-.46-.41c-.09.08-.12.21-.05.32.04.08.07.16.1.26M8.57 29.25c-.05-.05-.08-.09-.11-.12-.11-.1-.12-.11-.24-.03-.02.02-.05.04-.07.05-.23.13-.39.38-.67.43v.04l1.11-.37m18.86-13.54c.02.06.04.11.07.17.06.11.14.22.19.33.21.47.41.95.62 1.42l.08.19c0-.06.02-.08.01-.1-.21-.53-.42-1.05-.65-1.58-.07-.14-.16-.28-.26-.41 0 0-.02 0-.07-.03m1.6 3.53c-.11-.04-.21-.1-.3-.16-.14-.11-.27-.23-.38-.36-.14-.16-.25-.34-.38-.51-.04-.06-.07-.12-.18-.07.1.15.19.3.3.43.14.17.3.33.46.48.13.12.3.19.48.19m-4.09-.71s0-.06-.01-.08c-.17-.55-.28-1.1-.35-1.67 0-.04-.03-.07-.05-.11l-.05.02c.06.64.21 1.26.46 1.85m4.21 1.84c.06-.31-.14-.46-.31-.62-.05-.05-.08-.14-.18-.11.02.1.04.19.06.28l.02-.02.41.47m-6.77.79c.07.32.19.62.36.89.11.29.28.56.49.79l-.85-1.68m3.74-8.04v.23c.01.07.01.14.01.21-.04.15.04.31.18.38h.03c-.02-.11-.02-.23 0-.35.04-.21-.08-.32-.21-.47m1.23 2.72c.19.66.45 1.29.79 1.88l-.79-1.88Zm-1.85-2.48.07.17.35-.18c.02.13.04.22.06.32h.01v-.53l-.5.23m1.99 7.45.46-.23-.46-.17v.4ZM10.42 25.5l-.02-.05c-.14.05-.29.1-.42.16s-.27.12-.4.19c-.14.05-.27.11-.39.19l.02.04 1.22-.53m-3.59.22s0-.03-.01-.05l-.69.18c-.08.02-.14.05-.13.16l.83-.3m22.03-7.2c0-.17 0-.33-.05-.49l-.15.05c.02.12.03.23.05.34.01.07.07.1.16.11M3.96 25.07c-.02-.3-.13-.58-.32-.81l.32.81m21.6-4.43.03.06.8-.41s0-.02-.01-.03l-.81.38m2.01.34.02.03.58-.26c-.21.03-.41.11-.59.23m-1.21-3.38-.03.02.24.47.03-.02-.24-.47m-2.8-2.54.02.03.28-.12c-.11-.04-.23 0-.3.08M8.14 26.44l-.03-.04c-.06.06-.17.03-.21.19l.24-.14m17.8-5.13.23-.12c-.1-.02-.2.03-.23.12M7.8 25.73v-.02l-.23.05v.04l.23-.07m19.99-4.38v-.03c-.07.03-.15.02-.17.12l.17-.09m1.62-2.44q-.14.03-.13.15l.13-.15m-22.08 6.9c.05.09.09.06.15 0h-.15Zm.33.82c.08.02.12.01.09-.09l-.09.09m20.02-12.4.04-.03-.11-.09v.02l.07.1m1.79 4.79h.03l.04-.13h-.03l-.04.13m-2.11-5.05v-.02h-.13v.02h.13Z"></path><path fill="#1d1d1b" d="M32.67 14.82s.1-.08.15-.11c.25-.11.49-.22.73-.35-.16.05-.32.09-.48.14-.86.26-1.7.61-2.54.93-.31.12-.63.23-.95.34-.03 0-.06.02-.09.02-.03-.09.05-.1.09-.12.28-.13.56-.25.84-.37.25-.11.51-.22.79-.33l-.18-.05c.12-.12.29-.09.42-.19l-.2-.09.23.03c.07 0 .11.04.07.12l.21-.04c-.02.1-.09.1-.14.13-.07.04-.14.08-.2.12l-.15.02s0 .02.01.03l.13-.06c.36-.13.72-.27 1.08-.38.5-.15 1-.29 1.51-.43.05 0 .1-.01.15 0-.02.04-.03.07-.04.08-.47.19-.94.37-1.41.56h-.02Zm-1.84.39.02.02.06-.04v-.02l-.08.04m.27.23c.53-.1 1.04-.27 1.58-.33v.04c-.32.07-.64.14-.96.22s-.64.17-1 .25c.2-.17.44-.28.69-.33l-.33.15m-1.6 2.44c.07.2.08.41 0 .61-.03-.2-.03-.41 0-.61"></path><path fill="#1d1d1b" d="m32.67 14.81-.12.06v-.03l.13-.02m-20.93 3.87s-.01-.08-.02-.12v-.14c-.06-.19.05-.27.19-.36.43-.29.86-.57 1.31-.83.98-.56 1.95-1.12 2.9-1.72.54-.34 1.04-.74 1.55-1.11.65-.49 1.28-1.02 1.88-1.58.25-.23.47-.49.71-.74.12-.12.23-.25.35-.37.1-.1.12-.09.24 0-.06.08-.11.16-.17.24-.11.16-.21.33-.33.48-.12.16-.24.32-.37.47-.27.3-.54.59-.82.87-.24.23-.5.45-.76.66-.49.41-.98.81-1.48 1.2-.31.24-.63.45-.95.67-.43.3-.86.59-1.31.87-.29.19-.6.34-.91.51-.41.23-.83.45-1.25.67-.23.12-.47.21-.71.31h-.06m15.81-8.61c.07-.04.11.03.15.06.32.26.64.53.97.79l.19.15c.01-.05.02-.08.03-.1.08 0 .09.07.11.12l.12.24c-.07-.04-.14-.08-.2-.13-.1-.09-.21-.16-.33-.22l.14.19-.02.02s-.07-.05-.1-.08c-.14-.16-.28-.32-.43-.47-.14-.13-.29-.25-.44-.38-.06-.06-.12-.12-.17-.18m.6-.28-.84-1.16v-.02s.07.02.09.04c.26.36.51.72.76 1.08v.05h-.02m-.67.57c.22.25.41.53.56.82l-.03.02-.57-.82.04-.03m-.29-.55c-.09-.02-.15-.12-.27-.11-.06 0-.12-.09-.06-.19.12.06.22.14.32.23.01.01 0 .04 0 .07m2.08.26s-.09-.06-.13-.1c-.14-.17-.26-.34-.4-.52.22.17.4.39.53.63Zm-1.72.01a.88.88 0 0 1-.36-.27c.16.03.29.13.36.27"></path><path fill="#1d1d1b" d="M28.87 10.96c-.07-.04-.1-.12-.09-.2.1.05.11.08.08.2"></path><path fill="#1d1d1b" d="M28.79 10.77c-.09-.01-.09-.08-.13-.17.1.05.14.1.12.17m.58-.56.09.08-.03.02-.06-.11"></path><path fill="#1d1d1b" d="m29.26 10.06.1.15c-.05-.04-.11-.08-.1-.16m-.15 1.26.03.14c-.06-.03-.06-.08-.03-.14m-2.55-1.95-.05-.06.02-.02s.03.02.04.03c0 .01.01.02.01.04h-.02m2.1-.03-.06-.06.02-.02.05.07-.02.02m3.53 13.02-.08-.17c-.02.15-.04.3-.05.44h-.02c.01-.25.01-.5 0-.75-.05-.41-.13-.82-.2-1.24-.04-.34-.13-.67-.26-.99a.826.826 0 0 1-.08-.22l.1.14.06-.07c.04.07.07.15.09.23.12.6.24 1.2.35 1.8.04.22.05.44.07.67 0 .05.02.1.03.16Z"></path><path fill="#1d1d1b" d="M31.76 22.74c-.04-.65-.02-1.31-.13-1.96-.02-.16-.06-.31-.1-.49l-.09.12a.182.182 0 0 1 .03-.22c.12 0 .14.1.16.18.06.25.11.49.15.74.05.47.06.94.03 1.41 0 .07-.02.15-.04.22m.76-1.92c.13.41.21.83.25 1.25l.1-.12c-.02.19-.04.35-.06.51h-.04c-.11-.54-.17-1.09-.26-1.64m.9-.83c.11.39.18.79.21 1.19-.04-.2-.08-.41-.13-.61-.08.45.03.91-.05 1.39-.01-.67-.02-1.3-.04-1.96m-.09.54c.05.14.03.29-.06.41l.06-.41m-.68 1.71c.04.17.04.19-.12.41.04-.15.08-.27.12-.41m1.07-.6.04.52h-.02c-.02-.17-.03-.34-.05-.52h.02m.1 1.37v.24h-.01c0-.08-.01-.16-.02-.24h.03m-.55.15-.03.13h-.01l.03-.13h.02m-.34-1.59c0 .08-.02.16-.03.24h-.03l.06-.24Zm0 .01v-.22h.02c0 .07-.01.14-.02.22m.39 1.25v-.06.07h-.01m-1.12-.5v.15h-.02c0-.05.01-.1.02-.15m1.17-2.12v-.08h.01v.08h-.01m.32 1.12v.09-.08M13.93 35.79c.1.06.2.12.29.19.12.08.26.11.4.08.05-.02.08-.05.1-.1.15-.36.3-.72.44-1.08.03-.06.06-.13.09-.21l.3.17c-.1.35-.28.67-.39 1.03.08 0 .15-.06.17-.14l.21-.51c.18.13.27-.09.42-.08.02.1 0 .2-.08.27l.08.07s-.03.04-.05.05c-.39.34-.87.57-1.38.67h-.07c-.16-.08-.31-.16-.47-.24-.07-.04-.08-.11-.07-.19"></path><path fill="#1d1d1b" d="M14.9 34.38c.03.21-.04.41-.02.63h.11l-.41 1.05-.33-.18.61-1.5h.04m.58 2.51a.796.796 0 0 1-.25-.11.3.3 0 0 1-.03-.42c.04-.05.1-.08.16-.1.21-.06.44.06.51.28.04.09 0 .19-.08.24 0 0-.02 0-.03.01-.09.04-.18.07-.28.1m-.12-.45.18.09s.03-.05.02-.06c-.04-.06-.09-.09-.2-.03m1.66-.56c-.17 0-.31-.13-.32-.3.02-.14.14-.24.28-.23.17 0 .31.15.31.32-.01.13-.13.23-.27.22m.05-.3v-.04l-.12-.03v.05h.13m-1.04-.32v-.65l.03-.02.31.35-.34.32m6.92-10.06.05-.23c.09-.03.2-.02.28.03l.75.36c.03.02.07.04.1.07l-.02.03c-.33-.01-.66-.03-1-.03h-1.99c-.59-.01-1.19-.03-1.78-.05-.19 0-.39 0-.58-.01-.11 0-.22-.02-.33-.04-.02 0-.04 0-.05-.02l-.33-.33c.17-.01.3-.03.43-.04.57-.01 1.14-.03 1.71-.03.36 0 .72.01 1.08.02.08 0 .16.03.25.03s.18.08.24-.05c0-.01.04 0 .07 0 .12.01.23.02.35.02.25 0 .5.09.7.24l.08.04m-1.66-.53c-.14.01-.27.03-.4.04-.38.02-.75.03-1.13.05-.31.02-.62.05-.93.05-.29 0-.58-.02-.86-.03-.06 0-.12-.03-.15-.08-.04-.06-.08-.11-.13-.19.04-.02.08-.03.12-.04.3-.03.6-.05.9-.07.34-.02.68-.02 1.02-.07.15-.02.3-.03.45-.04.12 0 .25 0 .37.04.2.05.39.12.59.17.08.02.12.06.15.17m2.59.3 1.1.22-.04-.13.6.05s.05 0 .07.01c.33-.01.63.16.79.44.11.13.23.25.35.38.03.03.05.08.06.12-.06-.02-.12-.03-.18-.05-.34-.12-.69-.25-1.03-.36-.19-.05-.39-.08-.59-.1-.2-.03-.41-.05-.61-.07a.31.31 0 0 1-.23-.12c-.1-.12-.2-.23-.3-.35l.02-.05m-6.21.48h-.49s-.02.01-.04 0c-.19-.1-.36-.22-.51-.37.21-.02.38-.03.55-.04.05 0 .09.01.13.04.13.1.25.22.37.33l-.02.04m-3.07-.64-.27.06.1-.06-.42-.32c.23-.05.43-.1.63-.14.04 0 .08.02.1.05.1.12.19.25.26.39-.09-.03-.18-.06-.27-.1-.09-.04-.19-.07-.29-.1l.16.23m1.66.31c.12-.04.26 0 .35.09.12.11.25.21.4.33l-.33.06c-.11-.19-.32-.28-.42-.49m.48-1.28c-.25.05-.51.09-.76.14-.34.07-.68.14-1.02.2-.07.01-.16.06-.22-.07l2-.31v.04m9.61-4.46c-.34-.43-.63-.9-.85-1.41l.03.12c.12.33.28.65.48.94.03.05.06.1.09.16l-.03.02-.12-.04.04.23a.165.165 0 0 1-.21-.11v-.01c-.14-.3-.28-.6-.41-.9-.24-.57-.44-1.16-.59-1.75-.02-.07-.03-.13.03-.19.02-.04.03-.08.03-.12-.02-.11-.04-.22-.07-.33-.01-.05 0-.1.05-.11.06-.02.08.03.09.08.05.17.07.35.13.51a21.676 21.676 0 0 0 1.06 2.45c.09.15.18.3.28.44l-.03.03ZM7.31 26.59c-.1.24-.3.22-.45.3-.05-.07-.03-.11.03-.12.1-.02.19-.1.2-.21l.22.03m1.29-.9c.12-.03.23-.08.32-.16.06-.06.15-.03.22.03-.03.21-.22.36-.44.33-.1-.02-.12-.05-.11-.2m-.06-.12q-.1.1-.14 0h.14Z"></path><g fill="#fff"><path d="m54.53 27.49 3.73-4.45c2.1 1.6 4.67 2.46 7.31 2.45 1.25 0 1.79-.33 1.79-.9v-.06c0-.6-.66-.93-2.9-1.37-4.69-.96-8.8-2.3-8.8-6.72v-.06c0-3.97 3.1-7.05 8.86-7.05 4.03 0 7.02.96 9.43 2.87l-3.4 4.72a11.03 11.03 0 0 0-6.27-2.06c-1.05 0-1.52.36-1.52.87v.06c0 .57.57.93 2.78 1.34 5.34.99 8.93 2.54 8.93 6.75v.06c0 4.39-3.61 7.08-9.23 7.08-4.24 0-8.06-1.19-10.72-3.52M76.14 9.72h6.99v20.9h-6.99zm9.44 0h4.6v16.72h10.42v4.18H85.58V9.72Zm17.16 0h15.76v4.09h-11.2v4.24h9.85v4.09h-9.85v4.39h11.35v4.09h-15.91V9.72Zm18.06 0h2.21l13.17 16.75V9.72h2.3v20.9h-1.88l-13.5-17.14v17.14h-2.3V9.72Zm19.89 19.32 13.52-17.2h-13.08V9.72h16.3v1.58l-13.55 17.2h13.55v2.12h-16.75v-1.58Zm19.25-19.32h1.02v20.9h-1.02zm3.77 10.48v-.06c0-5.7 4.12-10.78 10.45-10.78s10.42 5.08 10.42 10.78c.03 0 .03.03 0 .06 0 5.7-4.12 10.78-10.45 10.78s-10.42-5.08-10.42-10.78m19.82.03v-.06c0-5.28-3.85-9.88-9.41-9.88s-9.37 4.54-9.37 9.82v.06c0 5.28 3.85 9.88 9.43 9.88s9.34-4.54 9.34-9.82"></path><path d="M120.8 9.72h2.21l13.17 16.75V9.72h2.3v20.9h-1.88l-13.5-17.14-2.3-3.76Z"></path></g></svg> 