<svg xmlns="http://www.w3.org/2000/svg" viewBox="0 0 1908 275">
<path fill="#ececec" d="M0 275V58.31c10.41.14 20.87.98 31.33 1.83 24.94 2.02 49.9 4.03 74.24-3.53 3.48-1.08 9.06 2.29 13.66 2.3 18.05.02 36.12-.11 54.13-.9 12.08-.53 24.03-2.6 36.12-3.34 5.09-.31 10.22-.27 15.35-.23 4.81.04 9.63.07 14.41-.18 24.97-1.33 49.88-3.43 74.88-4.4 16.88-.66 34.84-2.51 50.6.74 17.56 3.62 10.76 25.65 5.59 37.21 7.05-10.96 17.58-17.53 32.93-18.97 30.11-2.8 58.81-7.61 86.27-17.72 12.11-4.46 26.95-4.84 40.52-7.17 23.46-4.03 46.82-8.38 70.36-12.14 45.21-7.24 90.14-16.62 135.9-20.39 28.68-2.37 50.18-9.46 76.46-11.41h18.41c-22.75 22.62-31.53 33.36-54.73 52.78-53.73 45.02-63.7 62.28-118.43 106.65-6.11 4.95-10.84 10.82-16.22 16.26 1.31 1.84 2.61 3.69 3.91 5.54 30.05-2.59 60.05-5.46 90.14-7.71 84.48-6.3 169.03-12.16 253.48-18.67 4.87-.38 12.9 1.76 21.13 3.89 10.43 2.7 21.19 5.41 26.29 3.01 21.57-10.12 44.36-11.85 68.76-10.27 7.06.46 17.85.96 20.95-2.01 9.24-8.82 34.16-8.72 54.79-8.63 9.52.04 18.12.09 23.85-.74 25.64-3.72 50.47-1.72 75 .27 29.84 2.42 59.25 4.85 89.14-3.01 108.41-28.49 261.57-20.22 370.42-47.78 56.69-14.35 112.26-30.54 168.36-45.84V275H0Z"/>
</svg>
